<svg width="60" height="12" viewBox="0 0 60 12" fill="none" xmlns="http://www.w3.org/2000/svg">
<path d="M50.026 3.51074H47.5796V11.3288H50.026V3.51074Z" fill="#E42313"/>
<path d="M15.1773 11.346C15.2898 11.3489 15.4023 11.346 15.5177 11.346V9.66697C15.4341 9.66697 15.3648 9.66697 15.2956 9.66697C14.909 9.66409 14.5225 9.67563 14.1359 9.65832C13.6541 9.63813 13.4262 9.39002 13.4262 8.91113C13.4262 7.73699 13.4262 6.56284 13.4262 5.39158C13.4262 5.32811 13.432 5.26464 13.4349 5.18387C13.7291 5.18387 14.0118 5.18964 14.2945 5.18098C14.658 5.17233 15.0042 5.09732 15.2264 4.7771C15.4918 4.3963 15.5235 3.96068 15.5149 3.49333H13.4175V2.32495H11.0173V2.54132C11.0173 4.69632 11.0144 6.84845 11.0202 9.00345C11.0231 9.23713 11.0433 9.47946 11.0981 9.70736C11.3202 10.5959 11.9636 11.0344 12.8088 11.2306C13.5906 11.4152 14.3869 11.3373 15.1773 11.346Z" fill="#E42313"/>
<path d="M19.1526 11.1212C19.1468 7.68823 19.1468 4.25811 19.1468 0.825098V0.614502H16.6831V11.3434C16.7523 11.3434 16.8129 11.3434 16.8764 11.3434C17.5601 11.3434 18.2438 11.3376 18.9275 11.3463C19.1093 11.3491 19.1526 11.2943 19.1526 11.1212Z" fill="#E42313"/>
<path d="M40.6104 11.1935C40.6046 9.50868 40.6306 7.82102 40.5844 6.13625C40.5556 5.08327 40.0363 4.28705 39.0439 3.84277C38.4583 3.58313 37.8409 3.47639 37.2062 3.46197C36.3033 3.43889 35.4032 3.42447 34.5089 3.58025C34.2031 3.63506 33.9059 3.72161 33.5972 3.79373C33.5915 3.69853 33.5857 3.61198 33.5799 3.50236C32.9943 3.50813 32.4144 3.49659 31.8605 3.69853C31.422 3.8572 31.2749 4.09087 31.2749 4.55822C31.2749 6.73919 31.2749 8.92016 31.2749 11.1011V11.3319H33.7472V11.0982C33.7472 9.46829 33.7674 7.83833 33.7328 6.21126C33.7242 5.79872 33.8828 5.62852 34.2233 5.48716C35.057 5.14097 35.9282 5.08904 36.8052 5.1727C37.688 5.25925 38.164 5.62563 38.138 6.71035C38.1063 8.18452 38.1323 9.65869 38.1265 11.1358C38.1265 11.3088 38.1784 11.3492 38.3457 11.3463C38.9314 11.3377 39.517 11.3435 40.1055 11.3435H40.5902C40.5988 11.28 40.6104 11.2367 40.6104 11.1935Z" fill="#E42313"/>
<path d="M46.0801 4.83777C46.3974 4.4512 46.4032 3.98096 46.4263 3.50207H44.3203V2.33081H41.9259C41.923 2.37697 41.9172 2.4087 41.9172 2.44044C41.9172 4.69064 41.9143 6.94085 41.9201 9.19394C41.9201 9.53436 42.0038 9.86323 42.1711 10.169C42.5461 10.8556 43.1779 11.1787 43.9136 11.2624C44.6088 11.3403 45.3127 11.323 46.0138 11.3489C46.1522 11.3518 46.2907 11.3489 46.4234 11.3489V9.66706C46.3397 9.66706 46.2705 9.66706 46.2013 9.66706C45.8147 9.66418 45.4252 9.67283 45.0416 9.65841C44.554 9.63821 44.3261 9.393 44.3261 8.91411C44.3261 7.74285 44.3261 6.5687 44.3261 5.39455V5.18396C44.629 5.18396 44.9117 5.18973 45.1916 5.18107C45.5291 5.17242 45.8522 5.11184 46.0801 4.83777Z" fill="#E42313"/>
<path d="M50.0059 1.13376C49.478 0.452924 48.1596 0.441385 47.623 1.11356C47.3778 1.41936 47.372 1.81459 47.6201 2.12039C47.9259 2.49254 48.3413 2.6137 48.8029 2.62524C49.1981 2.62812 49.5732 2.50407 49.8414 2.27905C50.2107 1.97614 50.2799 1.49148 50.0059 1.13376Z" fill="#E42313"/>
<path d="M54.198 8.89699C53.7162 8.40079 53.6037 7.78054 53.6383 7.1199C53.6643 6.59486 53.8518 6.13039 54.2816 5.82171C54.5644 5.61977 54.8904 5.45244 55.2221 5.35436C56.2491 5.04279 57.3079 5.08606 58.3638 5.17261C58.6869 5.19857 59.01 5.24185 59.3475 5.27935V3.61478C59.1715 3.5917 59.0013 3.55996 58.8311 3.54265C57.7954 3.44457 56.7598 3.41283 55.7241 3.49938C54.925 3.56285 54.1432 3.70132 53.3989 4.00135C52.5276 4.35619 51.8266 4.89855 51.44 5.78132C51.166 6.41022 51.1256 7.07086 51.1746 7.74015C51.2179 8.32867 51.3737 8.88545 51.6853 9.39319C52.1786 10.1923 52.9142 10.6798 53.7883 10.9626C55.3952 11.4876 57.0396 11.5251 58.6926 11.2539C59.6879 11.0895 60.1351 10.4202 59.9649 9.47974C59.4687 9.54609 58.9725 9.61821 58.4734 9.67014C57.5502 9.76823 56.6242 9.79131 55.7039 9.61821C55.1385 9.51147 54.6076 9.32107 54.198 8.89699Z" fill="#E42313"/>
<path fill-rule="evenodd" clip-rule="evenodd" d="M29.9707 10.3366C29.9707 10.7058 29.8062 10.9453 29.4802 11.1126C29.1456 11.2857 28.032 11.378 27.6714 11.3174C27.6628 11.2309 27.657 11.1443 27.6483 11.0635C27.282 11.1559 26.9271 11.277 26.5607 11.3232C24.9654 11.528 23.4191 11.352 22.0026 10.5443C20.8775 9.90094 20.3265 8.88834 20.2659 7.60169C20.2227 6.69295 20.3669 5.83614 20.9525 5.10626C21.466 4.45717 22.1671 4.09079 22.9431 3.84557C23.8518 3.56285 24.7923 3.46765 25.7414 3.44746C26.6617 3.42726 27.5676 3.51092 28.4503 3.77633C28.7273 3.86 29.0014 3.98981 29.2495 4.1456C29.7312 4.44563 29.9707 4.89278 29.9678 5.46687C29.9649 7.08818 29.962 8.71236 29.9707 10.3366ZM27.4897 9.09894C27.4839 8.52196 27.4868 7.94499 27.4868 7.36801C27.4868 6.79103 27.481 6.21406 27.4897 5.63708C27.4926 5.4611 27.4262 5.35725 27.2675 5.29955C27.2012 5.27359 27.1377 5.24474 27.0685 5.23031C26.2319 5.05722 25.3924 5.07453 24.5586 5.25628C24.0538 5.3659 23.5893 5.56496 23.2287 5.94865C22.7844 6.41888 22.6921 6.99009 22.7498 7.60746C22.8248 8.40657 23.1941 9.02105 23.9413 9.3355C24.3567 9.50859 24.8096 9.61533 25.2568 9.67591C25.9693 9.774 26.6704 9.69611 27.3252 9.36723C27.4435 9.30665 27.4926 9.23741 27.4897 9.09894Z" fill="#E42313"/>
<path fill-rule="evenodd" clip-rule="evenodd" d="M9.7131 10.351C9.71599 10.726 9.54578 10.9712 9.21113 11.1126C8.83321 11.277 8.42933 11.3116 8.02256 11.3232C7.8235 11.3289 7.62445 11.326 7.4052 11.326C7.39654 11.2308 7.39077 11.1414 7.385 11.0664C7.02151 11.1558 6.66378 11.2828 6.30029 11.326C4.57513 11.528 2.91055 11.3405 1.43926 10.3394C0.593991 9.76532 0.143949 8.92582 0.034324 7.90457C-0.0291434 7.29875 -0.014719 6.70158 0.164144 6.11595C0.467056 5.12932 1.15366 4.49176 2.07682 4.07634C2.82977 3.73881 3.62889 3.5686 4.44531 3.5109C5.0771 3.46186 5.71754 3.44455 6.35221 3.47051C7.12536 3.50225 7.89274 3.60899 8.60819 3.92632C9.16209 4.17442 9.58905 4.5408 9.69291 5.17836C9.70733 5.25914 9.71022 5.3428 9.71022 5.42646C9.71022 7.06796 9.70733 8.70946 9.7131 10.351ZM7.24364 9.09603C7.23499 8.52482 7.24076 7.95362 7.24076 7.38241V5.76976C7.24076 5.4005 7.18018 5.3053 6.81091 5.23317C5.83005 5.037 4.84919 5.05143 3.90007 5.37742C2.89901 5.72072 2.45474 6.38713 2.47493 7.43434C2.49513 8.38923 2.99421 9.09603 3.88853 9.43068C4.45685 9.64416 5.04536 9.72205 5.65119 9.70474C6.15027 9.69032 6.62916 9.58646 7.08209 9.36144C7.20037 9.30086 7.24364 9.23162 7.24364 9.09603Z" fill="#E42313"/>
</svg>
