<svg width="41" height="51" viewBox="0 0 41 51" fill="none" xmlns="http://www.w3.org/2000/svg">
<g clip-path="url(#clip0_176_190)">
<path d="M14.6123 1.32861C14.5436 1.34962 14.6795 1.30563 14.6123 1.32861V1.32861Z" fill="#231F20"/>
<path d="M14.6122 1.32884C14.6004 1.33177 14.6249 1.32493 14.6122 1.32884V1.32884Z" fill="#231F20"/>
<path d="M33.3209 17.9802C33.384 14.1143 32.2042 9.42243 31.0671 6.92595C29.8062 4.06964 27.8828 2.335 25.0559 1.56345C23.5351 1.17356 21.9371 0.975216 20.2954 0.975216C18.6551 0.975216 17.0479 1.17356 15.5276 1.56345C12.7026 2.335 10.7768 4.06964 9.51974 6.92595C8.38025 9.42243 7.20142 14.1143 7.26359 17.9802C7.20142 21.8462 8.38025 26.539 9.51974 29.0364C10.7768 31.8908 12.7026 33.6264 15.5276 34.3965C17.0479 34.7878 18.6551 34.9867 20.2954 34.9867C21.9371 34.9867 23.5351 34.7878 25.0559 34.3965C27.8828 33.6264 29.8062 31.8908 31.0671 29.0364C32.2042 26.539 33.384 21.8462 33.3209 17.9802ZM20.3197 35.4609H20.2769C18.3064 35.4609 16.4067 35.1671 14.6125 34.6273C12.6818 33.9571 10.8934 32.6177 9.78689 30.9427C7.95865 28.2755 6.30138 23.1211 6.22998 17.9885V17.9729C6.30138 12.8403 7.95865 7.68537 9.78689 5.01673C10.8934 3.34319 12.6818 1.99893 14.6125 1.32923C16.4067 0.786575 18.3477 0.499973 20.3197 0.499973C22.2897 0.499973 24.2302 0.786575 26.0273 1.32923C27.9566 1.99893 29.7479 3.34319 30.8554 5.01673C32.6807 7.68537 34.3384 12.8403 34.4074 17.9729V17.9885C34.3384 23.1211 32.6807 28.2755 30.8554 30.9427C29.7479 32.6177 27.9153 33.9625 25.986 34.6312C24.1903 35.1729 22.3344 35.4609 20.36 35.4609" fill="#64614F"/>
<path d="M22.2561 10.0217C22.0672 9.70506 22.2216 9.98778 22.0259 9.61971L22.2561 10.0217Z" fill="white"/>
<path d="M20.7709 34.0745C20.7583 33.3669 21.4514 33.01 21.8875 32.5406C22.0065 32.4281 22.0498 32.2031 21.9662 32.0178C21.9133 31.901 21.838 31.8437 21.7404 31.8195C21.5883 31.785 21.4596 31.8078 21.362 31.8917C21.227 32.0183 21.1905 32.1822 21.1973 32.3587L20.7097 32.3869C20.6684 32.1187 20.7349 31.8588 20.8991 31.6551C21.1255 31.4136 21.4655 31.3471 21.7967 31.369C22.0605 31.4126 22.3689 31.5712 22.4782 31.8471C22.6186 32.1463 22.5714 32.5319 22.3495 32.7845C22.0629 33.0886 21.6899 33.2549 21.4514 33.5982L22.6764 33.5255C22.6866 33.6749 22.6968 33.8237 22.7031 33.9624" fill="#64614F"/>
<path d="M16.4223 31.0165L16.414 31.0393L15.6165 33.4834L15.1065 33.3161L15.6543 31.645L15.6626 31.6164C15.4586 31.5441 15.2133 31.4753 15.0166 31.4054L15.1205 31.0878C15.378 31.1562 15.6427 31.2003 15.8685 31.0136C15.9501 30.9491 15.9642 30.9321 16.0089 30.8841" fill="#64614F"/>
<path d="M25.5044 32.8516C25.4398 32.9272 25.3237 32.9854 25.1984 33.015C25.0717 33.0465 24.9429 33.0504 24.8507 33.0121C24.7239 32.9646 24.6365 32.8676 24.6044 32.7555C24.5558 32.5873 24.6044 32.4108 24.7457 32.3104C24.8103 32.2682 24.8987 32.227 24.9944 32.1998C25.0935 32.1804 25.1936 32.1741 25.265 32.1848C25.4413 32.2056 25.5656 32.3395 25.6001 32.5087C25.6244 32.6236 25.5943 32.7526 25.5044 32.8516ZM24.4339 31.6732C24.3717 31.5679 24.3717 31.3885 24.4825 31.2828C24.5446 31.2163 24.6365 31.1688 24.7355 31.1451C24.8322 31.1189 24.9381 31.1184 25.0255 31.1494C25.1693 31.1931 25.2514 31.3512 25.2489 31.4738C25.2465 31.5679 25.2052 31.6426 25.144 31.6998C25.0819 31.7561 24.9935 31.7968 24.9012 31.8177C24.8103 31.8424 24.7161 31.8448 24.6345 31.8264C24.5524 31.8026 24.48 31.7561 24.4339 31.6732ZM26.1193 32.371C26.0547 32.1305 25.9202 31.937 25.6516 31.8599L25.4962 31.8264C25.6565 31.7139 25.8036 31.486 25.7507 31.2658C25.7128 31.0141 25.5311 30.8541 25.3019 30.7678C25.1018 30.7052 24.8667 30.7164 24.6447 30.776C24.4188 30.8264 24.2095 30.9268 24.0575 31.0747C23.8977 31.2576 23.8098 31.4831 23.8962 31.7231C23.9506 31.9433 24.1862 32.0752 24.3785 32.1018L24.2581 32.2032C24.0541 32.3986 24.0288 32.629 24.0827 32.8729C24.1415 33.143 24.3601 33.3554 24.6253 33.4335C24.823 33.4834 25.0634 33.4796 25.2985 33.4243C25.5331 33.3661 25.7473 33.2589 25.8993 33.1188C26.0975 32.9253 26.1917 32.6396 26.1193 32.371Z" fill="#64614F"/>
<path d="M18.7733 33.5648C18.6892 33.6172 18.5605 33.6404 18.4313 33.6307C18.3026 33.6244 18.1792 33.5847 18.101 33.526C17.9942 33.4421 17.9422 33.3228 17.9446 33.203C17.948 33.0313 18.0471 32.8771 18.2128 32.8238C18.2851 32.8025 18.3818 32.7879 18.4823 32.7932C18.5809 32.801 18.68 32.8243 18.7456 32.8563C18.9059 32.9295 18.9851 33.0934 18.9676 33.268C18.9574 33.381 18.8874 33.4954 18.7733 33.5648ZM18.1035 32.123C18.0768 32.0038 18.1312 31.8316 18.2667 31.7637C18.3429 31.7186 18.4488 31.7002 18.5479 31.7084C18.6489 31.7142 18.7504 31.7438 18.8228 31.7981C18.9496 31.8806 18.9807 32.0586 18.9404 32.174C18.9112 32.2661 18.8471 32.3214 18.7723 32.3607C18.6951 32.3936 18.6004 32.4058 18.5061 32.399C18.4119 32.3946 18.3196 32.3709 18.2482 32.3277C18.1792 32.2816 18.1205 32.2157 18.1035 32.123ZM19.5033 33.2888C19.5135 33.0415 19.4431 32.8155 19.2109 32.6633L19.0725 32.5847C19.2566 32.526 19.4654 32.3529 19.48 32.1255C19.5203 31.8728 19.3926 31.6657 19.2017 31.514C19.0278 31.3956 18.8034 31.3384 18.5717 31.3268C18.3415 31.3093 18.1103 31.3418 17.9238 31.4378C17.7144 31.5649 17.5634 31.7555 17.5726 32.0096C17.5609 32.2356 17.7465 32.4334 17.9238 32.5144L17.7766 32.576C17.5221 32.6996 17.4288 32.914 17.4104 33.1623C17.3861 33.4402 17.5313 33.7049 17.7615 33.8572C17.933 33.9687 18.1656 34.0352 18.407 34.0521C18.6455 34.0657 18.884 34.0245 19.0715 33.9362C19.3178 33.8121 19.4917 33.5667 19.5033 33.2888Z" fill="#64614F"/>
<path d="M31.0278 8.49729L28.6439 9.52246L28.4321 9.02927L30.8136 8.00168" fill="#64614F"/>
<path d="M22.051 4.38633L21.4385 1.7206L22.0039 1.77685C22.1165 2.43686 22.2331 3.18464 22.3667 3.74087C22.6105 3.22198 22.8743 2.51348 23.1157 1.89179L23.6728 1.94707L22.5449 4.43628" fill="#64614F"/>
<path d="M11.9178 5.91055L11.3388 6.94493L10.8497 6.67385L11.5127 5.48671L11.1406 5.27624L10.2129 6.93814L12.4763 8.20142L13.405 6.53806L13.0296 6.32905L12.3641 7.51862L11.7303 7.16315L12.3117 6.12877" fill="#64614F"/>
<path d="M10.2011 18.086L9.47734 18.087H9.47248C9.48511 17.5123 9.39525 17.1729 9.73817 17.1064C9.85814 17.0744 10.0053 17.087 10.0942 17.1767C10.2414 17.3183 10.1967 17.5535 10.2011 18.086ZM9.08245 18.087H8.44471C8.46413 17.4953 8.36748 17.1767 8.73128 17.1384C8.94645 17.1224 9.00425 17.1695 9.05331 17.3009C9.09508 17.4328 9.08245 17.5729 9.08245 18.087ZM10.5454 16.9144C10.4221 16.6351 10.1219 16.525 9.812 16.54C9.55068 16.573 9.353 16.749 9.24128 17.0182C9.20194 16.8606 9.05331 16.6642 8.80462 16.6331C8.54476 16.6011 8.29462 16.6719 8.17076 16.8916C7.9993 17.1098 8.07362 18.0729 8.05662 18.6282L10.6319 18.6257L10.6329 18.4386C10.6178 17.4158 10.6775 17.2917 10.5454 16.9144Z" fill="#64614F"/>
<path d="M31.0486 9.93703L31.461 9.82986L31.9832 11.8545L31.5688 11.9607L31.378 11.2129L29.2942 11.7493L29.1621 11.2246L31.2419 10.6887" fill="#64614F"/>
<path d="M17.9606 4.53335C18.2482 4.4897 18.5197 4.36992 18.7028 4.15606C18.8597 3.97906 18.8825 3.80884 18.8582 3.61875L18.5624 1.76627L18.033 1.85113L18.3312 3.70216C18.3482 3.84182 18.2516 3.98585 18.1272 4.05713C18.0583 4.10175 17.9776 4.126 17.8917 4.13763C17.8086 4.15315 17.7221 4.15364 17.6449 4.13521C17.5045 4.10708 17.37 4.01349 17.3399 3.8617L17.0397 2.01165L16.5137 2.09748L16.8119 3.94705C16.8483 4.1357 16.9231 4.28991 17.1296 4.40969C17.3676 4.5542 17.6634 4.5833 17.9533 4.53383" fill="#64614F"/>
<path d="M30.7481 14.4221L30.6582 13.781L31.7773 13.9517H31.7807L31.7783 13.9527H31.7827H31.7773L30.7481 14.4221ZM32.2455 13.6059L29.5522 13.0657L29.6256 13.5909L30.2128 13.6976L30.3406 14.6238L29.8087 14.8872L29.8791 15.4133L32.3237 14.1568" fill="#64614F"/>
<path d="M31.8561 18.055L31.9047 18.0467L31.963 18.0322L32.0057 18.0147C32.1772 17.9226 32.2175 17.6951 32.2073 17.5113C32.2024 17.3241 32.1442 17.1345 31.9693 17.0642C31.877 17.04 31.7629 17.0322 31.7007 17.1263C31.4073 17.5593 31.6108 18.4754 30.857 18.6354C30.5277 18.6917 30.2387 18.5467 30.0687 18.2838C29.8346 17.8697 29.8166 17.217 30.0833 16.8116C30.2445 16.6016 30.4621 16.4711 30.7249 16.4692L30.7579 16.9663C30.5957 16.9871 30.4369 17.0696 30.363 17.2296C30.2552 17.4885 30.279 17.9007 30.4713 18.0535C30.5428 18.1321 30.7016 18.1214 30.789 18.0758C31.0897 17.861 31.0285 17.3251 31.1795 16.9663C31.2291 16.8135 31.3719 16.6598 31.5122 16.5822C31.7779 16.4682 32.1184 16.5094 32.3326 16.7194C32.678 17.0453 32.693 17.6835 32.5342 18.07C32.4443 18.3386 32.151 18.5331 31.8503 18.5501L31.8182 18.0559" fill="#64614F"/>
<path d="M10.9829 14.1439C11.031 13.8544 11.0024 13.5576 10.8552 13.3224C10.7367 13.1163 10.5813 13.0426 10.3899 13.0038L8.53687 12.7162L8.45284 13.2404L10.3083 13.5348C10.4477 13.5556 10.5536 13.6977 10.5822 13.8354C10.6021 13.914 10.6021 13.9989 10.5871 14.0847C10.5754 14.1681 10.5502 14.2506 10.505 14.3199C10.4341 14.4407 10.3049 14.5405 10.1509 14.5212L8.29741 14.2346L8.21436 14.7602L10.0703 15.0507C10.2612 15.0735 10.4307 15.0497 10.6075 14.8921C10.8207 14.7103 10.9378 14.4368 10.9829 14.1497" fill="#64614F"/>
<path d="M14.1745 4.75403L13.888 3.66243L13.8855 3.65806L13.888 3.66L13.8865 3.65515L13.8889 3.66146L14.7273 4.417L14.1745 4.75403ZM13.8593 3.07856L13.3848 3.36661L13.9535 6.04883L14.4091 5.77532L14.2746 5.19533L15.0736 4.70893L15.5297 5.09495L15.9819 4.81901" fill="#64614F"/>
<path d="M26.4463 3.9203L25.3554 3.463L25.5701 2.94751L26.8237 3.47173L26.9923 3.0765L25.2345 2.34327L24.2314 4.73161L25.9907 5.46484L26.1573 5.06865L24.8983 4.54297L25.1776 3.8752L26.2773 4.33638" fill="#64614F"/>
<path d="M10.1411 10.5834L9.48925 10.3923C9.63351 9.95105 9.69666 9.5049 10.0075 9.53012C10.1343 9.55194 10.2203 9.5854 10.2931 9.67608C10.4136 9.82496 10.2581 10.1571 10.1411 10.5834ZM10.6569 9.65669C10.6555 9.47968 10.6462 9.33274 10.4991 9.19066C10.3572 9.04323 10.1309 8.97631 9.90843 8.99086C9.33091 9.07912 9.25465 9.7401 8.93359 10.789L11.4176 11.5286L11.5744 11.0097L10.5913 10.7192L10.552 10.708C10.6176 10.468 10.7157 10.1664 10.7628 10.1009C10.9401 9.6916 11.5982 10.0926 11.8586 10.0553L12.0106 9.5403C11.5681 9.56455 10.9731 9.16883 10.6569 9.65669Z" fill="#64614F"/>
<path d="M29.1697 6.11264C29.0789 6.20138 29.0026 6.24988 28.8851 6.25473C28.6898 6.26443 28.515 5.94388 28.2396 5.59763L28.7758 5.1864C29.0522 5.56078 29.3747 5.8755 29.1697 6.11264ZM28.7806 4.5036L26.7236 6.07287L27.0505 6.50205L27.8631 5.88229L27.8991 5.85756C28.0506 6.05154 28.2405 6.3071 28.2638 6.38372C28.4926 6.76925 27.7757 7.06216 27.6582 7.29639L27.9831 7.72168C28.2235 7.34682 28.8943 7.10241 28.684 6.56024C28.8287 6.66596 28.9545 6.74452 29.1571 6.70718C29.3606 6.67905 29.5481 6.53648 29.6671 6.34638C29.9328 5.82749 29.4436 5.37698 28.7806 4.5036Z" fill="#64614F"/>
<path d="M26.9711 18.5947L22.5049 18.5884V17.2916L26.9711 17.2892V18.5947ZM26.5223 24.9799C26.3149 25.1443 26.1434 25.284 25.8938 25.4779C25.9122 24.9823 25.9822 24.478 25.7427 24.1841C25.1569 23.6041 24.6265 23.076 24.0981 22.5586C23.9023 22.3472 23.7445 22.0441 23.8737 21.7643C23.9344 21.6299 24.0184 21.4777 24.1097 21.3564C24.1097 21.629 24.2292 21.7841 24.3832 21.9379C25.1016 22.6415 26.344 23.623 26.4441 24.0386C26.5509 24.3189 26.5174 24.6535 26.5223 24.9799ZM25.545 25.1559C25.4066 25.3077 25.3585 25.363 25.1972 25.5211L24.8704 25.1293V24.0386C24.4109 24.2637 24.5216 24.9144 24.5216 25.4794C24.2501 25.2583 24.1126 25.1327 23.8513 24.8868C23.7042 24.2355 24.0932 23.8655 24.389 23.4068L25.545 24.5124V25.1559ZM25.8199 19.3221C26.0939 19.5461 26.2323 19.6703 26.4922 19.9171C26.6398 20.5689 26.2483 20.9384 25.9559 21.3957L24.798 20.291V19.6475C24.9359 19.4967 24.9845 19.4414 25.1453 19.2833L25.4722 19.6756V20.7638C25.9326 20.5403 25.8199 19.8875 25.8199 19.3221ZM23.8193 19.8235C24.0291 19.6611 24.1981 19.5199 24.4478 19.3245C24.4293 19.8206 24.3604 20.3245 24.5998 20.6188C25.187 21.2012 25.7175 21.7279 26.2449 22.2448C26.4417 22.4563 26.5971 22.7589 26.4693 23.0387C26.4072 23.1745 26.3231 23.3253 26.2333 23.4475C26.2333 23.1754 26.1157 23.0183 25.9603 22.8641C25.2424 22.1609 24 21.1809 23.8999 20.7638C23.7916 20.4855 23.8261 20.1475 23.8193 19.8235ZM23.6124 28.5117C23.4866 28.7256 23.2874 28.9438 23.0606 29.052C22.6696 29.2717 22.0789 29.212 21.7268 28.9555C21.4053 28.7256 21.2042 28.3798 21.1993 28.0258C22.1892 28.0244 22.8158 28.0244 23.7527 28.0244C23.7425 28.2358 23.7076 28.3071 23.6124 28.5117ZM20.8588 29.052H19.9787V27.4764L18.609 27.4774V26.8431H19.9845L20.4163 26.3339C20.6257 26.5783 20.6432 26.5962 20.8613 26.8431H22.2344V27.4774L20.8588 27.4764V29.052ZM19.1083 28.9555C18.7542 29.212 18.166 29.2717 17.7731 29.052C17.5477 28.9438 17.3451 28.7256 17.2218 28.5117C17.1285 28.3071 17.0906 28.2358 17.0824 28.0244C18.0164 28.0244 18.6469 28.0244 19.6368 28.0258C19.6309 28.3798 19.4308 28.7256 19.1083 28.9555ZM21.8939 23.1177L21.8968 19.292C22.4447 19.2843 22.621 19.2993 23.1898 19.2886V23.1177H21.8939ZM21.4781 23.4931C21.9153 23.5125 22.3573 23.8757 22.5278 24.2826C22.7016 24.6986 22.6336 25.2423 22.3645 25.5885C22.0284 25.9959 21.5621 26.2122 21.0186 26.1147C20.6762 26.039 20.3391 25.8305 20.1424 25.5104C20.4222 25.4168 20.8205 25.2558 20.8991 24.9848C20.8783 24.5619 21.1697 24.2229 21.3858 23.8859C21.4966 23.7404 21.5102 23.6521 21.4781 23.4931ZM16.5219 26.4682C16.3091 26.3281 16.2596 26.1903 16.1848 25.9959C16.0041 25.1734 16.9998 24.8776 17.2359 24.1938C17.4209 23.0503 17.4763 21.8462 18.2729 20.9554C18.3511 19.276 18.8956 17.7902 20.0914 16.5696C20.035 16.1903 19.8796 15.8625 19.766 15.5095C19.6091 15.5032 19.5032 15.4731 19.3618 15.3475C19.2584 15.201 19.2156 15.0914 19.1889 14.9144C18.7722 15.4304 18.2568 16.0065 17.6895 16.3547C17.5856 16.4134 17.4535 16.2902 17.2635 16.1147C16.567 15.5643 16.4495 14.3228 15.3882 14.3766C14.9059 14.2152 14.9287 13.6483 14.8495 13.2239C15.0278 13.0935 15.3192 13.0998 15.5329 13.1832C16.1964 13.5372 16.6384 14.2826 17.2635 14.7816C17.4301 14.9144 17.5812 15.0895 17.7352 15.1535C18.1461 14.8005 18.4744 14.4974 18.7542 13.9528C18.9461 13.642 19.2662 13.5086 19.6207 13.5042L19.8728 13.2074L19.7392 12.466C19.4804 12.1367 19.2662 11.79 19.0923 11.4195C19.1831 10.9947 19.2385 10.5 19.6693 10.2653C19.951 10.0907 20.1803 10.4884 20.4115 10.2362C20.5795 10.2018 20.7257 10.2478 20.8438 10.3434C21.0186 10.6474 21.2246 10.9491 21.2362 11.3021C21.1294 11.645 20.9671 11.9626 20.8044 12.2836C20.7675 12.3535 20.6684 12.3763 20.6014 12.4286C20.6422 12.5731 20.6762 12.7341 20.7767 12.8491C20.9045 12.8757 21.0269 12.8981 21.1799 12.8704C21.3042 12.4956 21.7083 12.3273 22.0454 12.2259L22.7857 11.7444C22.6671 11.1833 23.0276 10.6906 22.8274 10.1324C22.4034 9.93263 22.2825 9.4569 22.1916 9.08155C22.2596 8.85024 22.3738 8.60146 22.5414 8.40409L22.5656 8.43367C22.9712 8.90261 23.3418 9.3861 23.4705 9.969C23.5429 10.7139 23.6158 11.4767 23.5672 12.254C23.1665 12.6522 22.6842 12.8884 22.231 13.1832L21.8939 13.8287C21.8536 14.495 21.6573 15.0939 21.5553 15.7388C21.8429 16.5181 22.1839 17.5559 21.9327 18.2766C21.7394 18.7062 21.3353 18.9404 21.0351 19.1795L20.276 19.7852C21.0381 20.6222 20.854 21.5712 20.8865 22.7851C20.8783 23.078 21.4043 23.3219 21.1245 23.656C20.8899 24.0309 20.5247 24.3345 20.5854 24.8262C20.3517 25.2175 19.7956 25.3009 19.5309 25.2975C19.4755 25.3009 19.4308 25.2583 19.4308 25.202C19.4862 25.0008 19.6426 24.8432 19.7256 24.6526C19.9972 24.2384 19.8728 23.6662 20.2089 23.2812C19.933 22.3792 19.5139 21.5436 19.3988 20.582L19.392 20.5199C19.1646 20.9622 19.2904 21.3957 19.409 21.7449C18.6619 22.6852 17.8518 23.5896 17.8518 24.8262C17.5317 25.3926 17.078 25.9086 16.841 26.508C16.7628 26.6083 16.6127 26.5211 16.5219 26.4682ZM15.9696 23.6483C15.7093 23.8296 15.4688 23.8451 15.2133 23.8447C15.1303 23.8437 14.9816 23.8321 14.8966 23.8054C14.7043 23.7574 14.4318 23.6536 14.2681 23.3941L14.2361 23.333L14.2069 23.255L14.1715 23.1725L14.1574 23.0416L14.1588 20.6188C14.137 20.3143 14.0228 20.308 13.7742 20.1232L13.863 20.0931L14.8461 19.7721C14.985 19.9249 15.0176 20.1198 15.0302 20.3216V22.2148C15.0278 22.3379 15.1351 22.4078 15.2765 22.4146C15.4445 22.4146 15.5135 22.3515 15.5276 22.2186C15.5402 21.37 15.5135 21.1324 15.5276 20.3613C15.5495 20.1024 15.7807 19.8434 15.9992 19.7842C16.2722 19.6543 16.6015 19.7047 16.8444 19.8255C17.283 20.032 17.2611 20.8875 17.2563 21.5814C17.0848 21.4689 17.0571 21.4553 16.8857 21.4083C16.7361 21.3758 16.5714 21.4044 16.4553 21.4932C16.3135 21.6227 16.2989 21.7483 16.2965 21.9747C16.2848 22.7783 16.3732 23.3306 15.9696 23.6483ZM15.4941 14.6904C15.6806 14.64 15.8613 14.7559 16.0041 14.8635C15.9822 15.6152 15.9822 15.6065 15.9657 16.3959H15.5514L15.5495 16.2699C15.5329 15.6719 15.5077 15.2801 15.4941 14.6904ZM13.7664 17.2916L18.2326 17.2892V18.5845L13.7664 18.5884V17.2916ZM16.5913 11.7647H16.2008L16.0327 13.1541C15.8657 13.0033 15.6762 12.8976 15.4674 12.8306C15.3688 12.2405 15.3595 12.1988 15.3051 11.7647H14.9287V11.3525C15.5781 11.3506 15.9385 11.3535 16.5899 11.3535L16.5913 11.7647ZM14.9127 8.76392L14.9141 8.76052C15.0152 9.05876 15.2041 9.27262 15.5033 9.41422C15.4688 9.25468 15.3294 9.11162 15.2842 8.94432C15.1546 8.61747 15.1672 8.15095 15.3799 7.86629C15.531 7.64273 15.7486 7.55108 15.9866 7.47494C15.8958 7.74457 15.8681 8.0656 15.9788 8.33862C16.1352 8.2203 16.1435 8.21302 16.2639 8.09567C16.3091 8.05202 16.33 8.03796 16.3689 8.00838C16.5913 8.48023 16.841 9.13005 16.6948 9.67997L16.6049 9.91614C16.5695 9.52819 16.5058 9.34197 16.2445 9.20182C16.21 9.42732 16.3553 9.58977 16.3888 9.88413C16.4956 10.34 16.4116 10.7919 16.1294 11.0548H15.4008C14.8437 10.4607 14.8058 9.56892 14.9127 8.76392ZM22.026 9.61936L22.2562 10.0219L21.6816 10.6494C21.5262 10.5005 21.5136 10.4864 21.3596 10.3254C21.6554 10.0156 21.6841 9.98355 22.026 9.61936ZM23.7824 7.10056C24.0082 7.0351 24.3157 7.06371 24.5066 7.23295C24.7635 7.4182 24.8383 7.73244 24.7756 8.02438C24.5964 8.65481 23.8907 8.77216 23.319 8.92152L23.0057 8.49623C23.1218 7.95309 23.184 7.32558 23.7824 7.10056ZM24.9626 15.4653C24.9991 15.4663 25.173 15.4295 25.1769 15.3203V13.045C25.4906 12.9718 25.8073 12.8646 26.1031 12.804V14.1759C26.2828 14.155 26.3717 14.1322 26.5913 14.0988V15.9066L26.0273 15.991L25.851 16.7204H23.8426L23.5429 16.071C23.0562 16.0259 23.0217 16.0259 22.5311 15.991C22.9916 15.3984 23.4647 14.8082 23.7848 14.1594V13.2346L24.6906 13.1187V15.3111C24.6906 15.3873 24.8024 15.4653 24.915 15.4653H24.9626ZM27.2543 8.16016C26.7078 6.91871 25.6189 6.00556 24.2914 5.62682C23.046 5.29124 21.6943 5.10212 20.3415 5.10212H20.2988C18.9451 5.10212 17.5948 5.29124 16.3485 5.62682C15.021 6.00556 13.934 6.91871 13.3851 8.16016C12.1927 10.71 11.4131 14.3762 11.4131 17.9798C11.4131 21.5858 12.1927 25.25 13.3851 27.7994C13.934 29.0403 15.021 29.9554 16.3485 30.3337C17.5948 30.6683 18.9451 30.8564 20.2988 30.8564H20.3415C21.6943 30.8564 23.046 30.6683 24.2914 30.3337C25.6189 29.9554 26.7078 29.0403 27.2543 27.7994C28.4433 25.25 29.2263 21.5858 29.2263 17.9798C29.2263 14.3762 28.4433 10.71 27.2543 8.16016Z" fill="#64614F"/>
<path d="M5.50706 40.2594C5.7878 40.2594 5.95829 40.0693 5.95829 39.7584C5.95829 39.4621 5.73243 39.3307 5.47743 39.3307H4.54243L4.5434 40.2594H5.50706ZM5.56243 40.8806C5.18114 40.8568 4.82803 40.8592 4.5434 40.8592V40.866L4.54 41.9436C5.33414 41.9334 5.36232 41.9436 5.63335 41.912C5.9102 41.88 6.03989 41.6356 6.03989 41.3956C6.03989 41.1555 5.86163 40.899 5.56243 40.8806ZM29.3378 39.4917L29.3368 39.4873V39.4941L28.8579 41.1032H29.8191L29.3378 39.4941V39.4917ZM17.8875 39.3705C17.6607 39.353 17.2483 39.3792 16.8699 39.3705V40.3636C17.6097 40.3656 17.7228 40.3631 17.9531 40.3423C18.1818 40.319 18.3295 40.1124 18.3295 39.8297C18.3271 39.545 18.1172 39.3928 17.8875 39.3705ZM36.6682 41.5396C36.6556 41.8262 36.5832 42.0692 36.3093 42.2922C35.9926 42.5648 35.5632 42.6744 35.128 42.6719H35.1178C34.6851 42.6744 34.2542 42.5648 33.9366 42.2922C33.665 42.0692 33.5902 41.8262 33.5786 41.5396V38.7386H34.3776V41.5396C34.3844 41.768 34.5617 41.9358 34.7584 42.0124C34.8701 42.0575 34.9959 42.0784 35.1246 42.0755C35.2514 42.0784 35.3777 42.0575 35.487 42.0124C35.6866 41.9358 35.8658 41.7472 35.8692 41.5396L35.8707 38.7386H36.6682V41.5396ZM30.3151 42.5832L30.0353 41.7428H28.6413L28.3615 42.5832H27.5722L28.9225 38.7318H29.7536L31.1029 42.5832H30.3151ZM24.7322 40.1924L24.7347 40.8592H22.9652L22.9642 41.9358H24.9926L24.9935 42.5764H22.1584V38.724H24.9935L24.9926 39.3612L22.9676 39.3632V40.191L24.7322 40.1924ZM18.4101 42.5832C18.227 42.5817 18.4985 41.0551 17.8365 41.0159C17.4659 40.9911 17.2332 41.0066 16.8651 41.012L16.8685 42.5832H16.0651V38.7332C16.8029 38.7386 17.2264 38.7429 17.8885 38.7429C18.4849 38.772 19.0785 39.0111 19.1188 39.658C19.164 40.4058 18.7404 40.5775 18.3431 40.706C19.2626 40.9029 18.9221 41.9746 19.1674 42.5832H18.4101ZM12.7637 41.5444C12.7544 41.8325 12.6811 42.0755 12.4091 42.299C12.0914 42.5696 11.6611 42.6802 11.2283 42.6782H11.2167C10.7815 42.6802 10.3531 42.5696 10.0369 42.299C9.76291 42.0755 9.69005 41.8325 9.67743 41.5444V38.7454H10.473L10.4755 41.5444C10.4823 41.7733 10.6571 41.9436 10.8587 42.0163C10.968 42.0643 11.0957 42.0861 11.2225 42.0789C11.3488 42.0861 11.4756 42.0643 11.5848 42.0163C11.7854 41.9436 11.9637 41.7535 11.9671 41.5444L11.9686 38.7454H12.7637V41.5444ZM5.56243 42.5817H3.73905V38.7361C4.51231 38.7386 4.96257 38.7361 5.60275 38.7361C6.19678 38.7361 6.66501 39.0581 6.71018 39.6464C6.75001 40.0533 6.62275 40.4058 6.13315 40.5285C6.56592 40.6478 6.84472 41.0425 6.84667 41.5537C6.8491 41.9901 6.50958 42.5817 5.56243 42.5817ZM0 43.6389H40.4V37.7134H0V43.6389Z" fill="#64614F"/>
<path d="M35.3087 49.5228C34.1367 49.5228 33.6854 48.792 33.6854 48.2314L34.4233 48.2043C34.4233 48.5098 34.7123 48.9074 35.2499 48.9074C35.6643 48.9074 36.1247 48.8202 36.1247 48.3682C36.1247 47.5496 33.8044 48.0292 33.8044 46.7305C33.8044 46.039 34.2761 45.4474 35.2961 45.4474C36.7105 45.4474 36.8373 46.4061 36.8373 46.652L36.0951 46.6787C36.0951 46.3649 35.9037 46.0754 35.3825 46.0754C34.8162 46.0754 34.5962 46.3217 34.5962 46.5904C34.5962 47.2834 36.9296 46.9274 36.9296 48.2256C36.9296 49.0864 36.2583 49.5228 35.3087 49.5228ZM31.0587 49.436L30.7789 48.5956H29.3849L29.1066 49.436H28.3158L29.6695 45.5832H30.4972L31.8485 49.436H31.0587ZM26.7684 46.2398H25.6177V49.436H24.8138L24.8104 46.2398L23.6559 46.2403V45.6108H26.7684V46.2398ZM21.4133 49.436H20.6061V45.5812H21.4133V49.436ZM17.0113 49.4249C16.8306 49.4249 17.0997 47.8983 16.4391 47.8571C16.0675 47.8362 15.8358 47.8532 15.4677 47.8566L15.4711 49.4249H14.6687V45.5764C15.4055 45.5807 15.829 45.5846 16.493 45.5846C17.0885 45.6161 17.6825 45.8547 17.7214 46.5026C17.7675 47.2499 17.3425 47.4211 16.9467 47.5496C17.8666 47.7489 17.5232 48.8177 17.7709 49.4249H17.0113ZM11.6849 47.0521V47.7174L9.91688 47.7159V48.7949H11.9428L11.9452 49.4356H9.11108V45.5807H11.9462L11.9428 46.2184L9.91931 46.2199V47.0501L11.6849 47.0521ZM5.50123 49.436H4.76197L3.45442 45.5832L4.29811 45.5817C4.56525 46.5438 4.85086 47.6311 5.13063 48.4366C5.41234 47.6311 5.69892 46.5438 5.96266 45.5832L6.79615 45.5817L5.50123 49.436ZM0 50.5H40.4V44.573H0V50.5ZM30.0863 46.3377L30.0848 46.3426L30.0839 46.3377V46.3445L29.6015 47.9574H30.5637L30.0863 46.3445V46.3377ZM16.492 46.2175C16.2652 46.1966 15.8509 46.2228 15.4745 46.2175V47.2097C16.2098 47.2121 16.3249 47.2087 16.5542 47.1854C16.782 47.1621 16.934 46.9575 16.9316 46.6748C16.9297 46.3896 16.7198 46.2344 16.492 46.2175Z" fill="#BE1536"/>
</g>
<defs>
<clipPath id="clip0_176_190">
<rect width="40.4" height="50" fill="white" transform="translate(0 0.5)"/>
</clipPath>
</defs>
</svg>
