<svg width="50" height="51" viewBox="0 0 50 51" fill="none" xmlns="http://www.w3.org/2000/svg">
<path d="M5.04023 12.7591L0.364795 4.96671L3.48175 1.84975L11.2741 6.52519V9.64214L19.2892 17.6572C19.2892 17.8798 19.2892 18.1025 19.2892 18.3251L16.3949 20.9968L8.15718 12.7591H5.04023ZM38.4362 31.6835C37.7683 31.6835 37.323 31.6835 36.6551 31.6835C35.0966 31.6835 33.7607 31.4608 32.4249 31.2382L27.7495 36.5815L38.2135 48.3814C40.6626 51.0531 44.8927 51.2758 47.3418 48.6041C50.0134 45.9324 49.7908 41.9249 47.1191 39.4759L38.4362 31.6835ZM46.0059 23.2232C49.5682 19.6609 50.6814 14.3176 49.3455 9.64214C49.1229 8.75159 48.0097 8.52894 47.5644 9.19686L39.772 16.9893L33.5381 10.7553L41.3305 2.96295C41.9984 2.29503 41.7758 1.40447 40.8852 1.18183C36.2098 -0.376644 30.8664 0.736555 27.3042 4.52143C23.2967 8.52894 22.4061 14.7629 24.6325 19.6609L2.36855 39.4759C-0.303124 41.9249 -0.525765 46.1551 2.14591 48.6041C4.81759 51.2758 8.8251 51.0531 11.2741 48.3814L31.0891 26.1175C35.9871 28.3439 41.9984 27.4533 46.0059 23.2232Z" fill="#58626C"/>
</svg>
