<svg width="51" height="51" viewBox="0 0 51 51" fill="none" xmlns="http://www.w3.org/2000/svg">
<g clip-path="url(#clip0_176_1125)">
<path d="M20.5091 50.5001C20.0588 50.5001 19.6304 50.2694 19.3888 49.874L16.0939 44.5033L9.6139 45.9091C9.13065 46.008 8.63641 45.8433 8.32889 45.4698C8.01038 45.0964 7.9335 44.5802 8.12021 44.1189L16.7968 22.8557C16.9286 22.5372 17.1812 22.2736 17.5107 22.1418C17.8292 22.01 18.1917 22.01 18.5212 22.1418L29.6909 26.6998C30.3609 26.9744 30.6904 27.7432 30.4158 28.4131L21.7282 49.6763C21.5415 50.1376 21.1132 50.4561 20.6189 50.4891C20.575 50.5001 20.542 50.5001 20.5091 50.5001ZM16.7199 41.6917C17.1702 41.6917 17.5986 41.9223 17.8402 42.3177L20.2675 46.2716L27.4723 28.6328L18.7298 25.0633L11.492 42.79L16.4344 41.7136C16.5332 41.7026 16.6321 41.6917 16.7199 41.6917Z" fill="#E3B23C"/>
<path d="M32.074 50.5001C32.041 50.5001 31.9971 50.5001 31.9641 50.5001C31.4699 50.4561 31.0416 50.1486 30.8549 49.6873L22.1673 28.4241C21.8927 27.7542 22.2112 26.9853 22.8921 26.7108L34.0729 22.1418C34.3914 22.01 34.7538 22.01 35.0833 22.1418C35.4018 22.2736 35.6654 22.5372 35.7972 22.8557L44.4519 44.042C44.5397 44.2178 44.5837 44.4045 44.5837 44.6131C44.5837 45.338 44.0016 45.9201 43.2877 45.9311C43.1888 45.9311 43.09 45.9201 42.9801 45.8982L36.5001 44.4923L33.2052 49.863C32.9526 50.2694 32.5243 50.5001 32.074 50.5001ZM25.0997 28.6438L32.3046 46.2826L34.7319 42.3287C35.0284 41.8564 35.5886 41.6148 36.1377 41.7356L41.0801 42.8119L33.8422 25.0853L25.0997 28.6438Z" fill="#E3B23C"/>
<path d="M35.1495 34.0363L30.5476 33.6629L27.1758 36.804L23.2768 34.3438L18.8287 35.5629L16.5332 31.5651L12.0301 30.5766L11.8434 25.9638L8.31787 22.9983L10.2948 18.8358L8.54852 14.5633L12.2388 11.7956L12.6781 7.2047L17.2251 6.46883L19.7512 2.6028L24.1225 4.06354L28.1533 1.823L31.3384 5.15086L35.9512 5.03005L37.2363 9.46721L41.3659 11.4991L40.4433 16.0131L43.1671 19.7473L40.2456 23.3168L40.9156 27.8748L36.6761 29.687L35.1495 34.0363Z" fill="white"/>
<path d="M27.1755 38.122C26.9339 38.122 26.6922 38.0561 26.4726 37.9134L23.0678 35.7607L19.1798 36.826C18.5977 36.9798 17.9827 36.7272 17.6861 36.211L15.6762 32.7184L11.7443 31.8507C11.1622 31.7189 10.7338 31.2137 10.7119 30.6206L10.5471 26.5898L7.47188 23.9978C7.01059 23.6134 6.86781 22.9654 7.1314 22.4273L8.85574 18.7919L7.3291 15.0576C7.09845 14.4975 7.27418 13.8605 7.75744 13.509L10.9865 11.0927L11.3709 7.08393C11.4258 6.49084 11.8761 6.00759 12.4692 5.90874L16.445 5.26074L18.6526 1.87796C18.9821 1.37274 19.6082 1.16406 20.1683 1.35077L23.9904 2.6248L27.516 0.66982C28.0431 0.373278 28.6911 0.472125 29.1085 0.911448L31.8872 3.82196L35.918 3.71213C36.5221 3.70114 37.0492 4.08555 37.214 4.66765L38.3343 8.54467L41.9367 10.3239C42.4749 10.5875 42.7714 11.1806 42.6506 11.7737L41.8488 15.7166L44.2322 18.9786C44.5836 19.4618 44.5726 20.1208 44.1882 20.5931L41.6292 23.7013L42.2113 27.6881C42.2991 28.2812 41.9806 28.8523 41.4205 29.094L37.7192 30.6755L36.3793 34.4757C36.1816 35.0358 35.6324 35.3982 35.0284 35.3543L31.0086 35.0248L28.0651 37.7706C27.8235 38.0012 27.505 38.122 27.1755 38.122ZM23.2765 33.0259C23.5181 33.0259 23.7707 33.0918 23.9794 33.2346L27.0217 35.1566L29.6467 32.7074C29.9212 32.4548 30.2837 32.323 30.6571 32.3559L34.2486 32.6525L35.4347 29.2587C35.5555 28.9073 35.8191 28.6327 36.1596 28.4789L39.4655 27.0621L38.9383 23.5036C38.8834 23.1412 38.9823 22.7677 39.2239 22.4822L41.4974 19.7035L39.3777 16.7929C39.158 16.4964 39.0811 16.112 39.147 15.7496L39.8609 12.235L36.6429 10.6534C36.3134 10.4887 36.0608 10.1921 35.9619 9.84067L34.9625 6.38101L31.371 6.47986C30.9976 6.49084 30.6461 6.33708 30.3825 6.07348L27.9004 3.4705L24.7592 5.21681C24.4407 5.39253 24.0563 5.43647 23.7048 5.31565L20.3001 4.17342L18.3341 7.18277C18.1364 7.4903 17.8069 7.69898 17.4445 7.76487L13.897 8.33599L13.5565 11.9165C13.5235 12.2899 13.3368 12.6194 13.0403 12.85L10.1627 15.0027L11.5246 18.3306C11.6674 18.671 11.6564 19.0555 11.4917 19.3959L9.95405 22.6359L12.6998 24.9424C12.9854 25.184 13.1501 25.5245 13.1721 25.8979L13.3149 29.4894L16.8294 30.2582C17.1919 30.3351 17.4994 30.5657 17.6861 30.8842L19.4764 33.9924L22.936 33.0479C23.0458 33.0369 23.1557 33.0259 23.2765 33.0259Z" fill="#E3B23C"/>
<path d="M25.5172 30.0823C31.583 30.0823 36.5003 25.165 36.5003 19.0993C36.5003 13.0335 31.583 8.11621 25.5172 8.11621C19.4515 8.11621 14.5342 13.0335 14.5342 19.0993C14.5342 25.165 19.4515 30.0823 25.5172 30.0823Z" fill="white"/>
<path d="M25.517 30.9609C18.9711 30.9609 13.6553 25.6451 13.6553 19.0992C13.6553 12.5533 18.9711 7.23755 25.517 7.23755C32.0629 7.23755 37.3787 12.5533 37.3787 19.0992C37.3787 25.6451 32.0629 30.9609 25.517 30.9609ZM25.517 8.99484C19.9486 8.99484 15.4126 13.5308 15.4126 19.0992C15.4126 24.6677 19.9486 29.2037 25.517 29.2037C31.0854 29.2037 35.6214 24.6677 35.6214 19.0992C35.6214 13.5308 31.0854 8.99484 25.517 8.99484Z" fill="#E3B23C"/>
<path d="M25.7259 12.4326L27.7138 16.4634L32.151 17.1114L28.9439 20.2416L29.7017 24.6677L25.7259 22.581L21.75 24.6677L22.5078 20.2416L19.3008 17.1114L23.7379 16.4634L25.7259 12.4326Z" fill="#E3B23C"/>
<path d="M29.7016 25.5464C29.5588 25.5464 29.416 25.5134 29.2952 25.4475L25.7257 23.5694L22.1562 25.4475C21.8597 25.6013 21.4973 25.5793 21.2337 25.3816C20.9591 25.1839 20.8273 24.8544 20.8822 24.5249L21.5632 20.5601L18.6746 17.7484C18.433 17.5178 18.3451 17.1663 18.455 16.8478C18.5538 16.5293 18.8284 16.2986 19.1689 16.2547L23.1557 15.6726L24.935 12.0592C25.0777 11.7626 25.3853 11.5649 25.7257 11.5649C26.0552 11.5649 26.3628 11.7517 26.5165 12.0592L28.2958 15.6726L32.2826 16.2547C32.6121 16.2986 32.8867 16.5293 32.9965 16.8478C33.1063 17.1663 33.0185 17.5178 32.7769 17.7484L29.8883 20.5491L30.5693 24.514C30.6242 24.8435 30.4924 25.1729 30.2178 25.3706C30.064 25.4915 29.8773 25.5464 29.7016 25.5464ZM21.1897 17.7264L23.1337 19.6155C23.3424 19.8132 23.4303 20.1098 23.3863 20.3953L22.9251 23.0642L25.3194 21.8011C25.572 21.6694 25.8795 21.6694 26.1321 21.8011L28.5264 23.0642L28.0651 20.3953C28.0212 20.1098 28.1091 19.8242 28.3177 19.6155L30.2617 17.7264L27.5819 17.342C27.2963 17.2981 27.0437 17.1224 26.9229 16.8588L25.7257 14.4315L24.5286 16.8588C24.3968 17.1224 24.1552 17.2981 23.8696 17.342L21.1897 17.7264Z" fill="#E3B23C"/>
</g>
<defs>
<clipPath id="clip0_176_1125">
<rect width="50" height="50" fill="white" transform="translate(0.5 0.5)"/>
</clipPath>
</defs>
</svg>
