<svg width="60" height="42" viewBox="0 0 60 42" fill="none" xmlns="http://www.w3.org/2000/svg">
<path d="M45.46 8.77323C43.4016 3.74335 37.4428 0.0817871 30.444 0.0817871C21.7442 0.0817871 14.6587 5.71916 14.6587 12.6208C14.6587 16.9282 17.416 20.7266 21.5979 23.0199L28.5263 8.78962L45.46 8.77323Z" fill="#164194"/>
<path d="M30.4385 25.1436C39.1329 25.1436 46.2237 19.5281 46.2237 12.6265C46.2204 12.0905 46.1715 11.5558 46.0775 11.0283H28.2662L28.0767 11.488C33.3041 12.6429 30.5955 16.9612 26.7495 24.7878C27.9652 25.023 29.2006 25.1385 30.4385 25.1326" fill="#E74011"/>
<path d="M15.3678 35.033L14.1791 39.6153C13.678 41.1576 12.6485 41.9389 11.0603 41.9526H4.11481C1.34814 41.6386 -0.0266793 40.2124 0.000392083 37.65C0.0621385 35.9365 0.65415 34.2854 1.69359 32.9278C2.81786 31.3446 4.50087 30.4029 7.01694 30.2289H16.4988L15.9536 31.7984H8.27668C7.61133 31.872 6.9751 32.1131 6.4265 32.4994C5.87795 32.8858 5.43467 33.4051 5.13753 34.0094C4.52568 35.2401 4.15547 36.5782 4.04707 37.9503C4.01887 38.2283 4.04066 38.5091 4.11146 38.7794C4.19812 39.2473 4.44549 39.6696 4.81014 39.9721C5.17485 40.2747 5.63361 40.4383 6.10601 40.4342H9.13342C9.78701 40.5024 10.1493 40.1408 10.2983 39.4788C10.6031 38.4996 10.918 37.5238 11.2194 36.5479H8.03287C8.21574 36.0429 8.37148 35.5243 8.56454 35.0262L15.3678 35.033ZM28.2732 30.1879L18.6254 30.1606L15.344 41.9184L19.3095 41.9526L22.2184 31.6107H26.8069C26.9967 31.6396 27.1757 31.7177 27.3265 31.8374C27.4773 31.957 27.5947 32.1141 27.667 32.2931C27.9684 33.0745 27.5654 34.0981 26.536 34.6508C25.9434 34.9716 25.1814 35.0228 24.1655 34.9921H22.1405L25.1882 40.4308C25.4346 40.9193 25.8212 41.3218 26.2977 41.5859C26.7742 41.8501 27.3186 41.9635 27.8601 41.9116H30.5693L27.5214 36.4251C29.2146 36.4524 31.0094 35.2786 31.4392 33.559C31.8528 31.9212 31.4225 30.3074 28.2867 30.1879H28.2732ZM39.394 31.5527H45.828L46.275 30.1879H38.2156C33.6168 30.362 32.5129 33.6 32.2384 35.5721C31.9644 37.5443 31.9305 41.2667 35.8251 41.9287H43.6132L43.9794 40.4376H38.3952C36.634 40.0964 35.8553 38.7316 36.0516 36.3842H44.2161L44.7209 35.0193H36.2683C36.4781 33.3577 37.3081 32.0338 39.4112 31.563L39.394 31.5527ZM53.1157 31.5527H59.5497L60 30.1879H51.9406C47.3455 30.362 46.2346 33.6 45.9536 35.5721C45.6721 37.5443 45.6452 41.2667 49.543 41.9287H57.3317L57.6973 40.4376H52.1164C50.3589 40.0964 49.5802 38.7316 49.7803 36.3842H57.9411L58.4491 35.0193H49.9831C50.1998 33.3577 51.0433 32.0338 53.1292 31.563L53.1157 31.5527Z" fill="#164194"/>
</svg>