<svg width="133" height="132" viewBox="0 0 133 132" fill="none" xmlns="http://www.w3.org/2000/svg">
<path d="M66.0344 1C38.8924 1 30.9544 1.028 29.4114 1.156C23.8414 1.619 20.3754 2.496 16.5994 4.376C13.6894 5.821 11.3944 7.496 9.12942 9.844C5.00442 14.126 2.50442 19.394 1.59942 25.656C1.15942 28.696 1.03142 29.316 1.00542 44.844C0.995421 50.02 1.00542 56.832 1.00542 65.969C1.00542 93.089 1.03542 101.019 1.16542 102.559C1.61542 107.979 2.46542 111.389 4.26542 115.119C7.70542 122.259 14.2754 127.619 22.0154 129.619C24.6954 130.309 27.6554 130.689 31.4554 130.869C33.0654 130.939 49.4754 130.989 65.8954 130.989C82.3154 130.989 98.7354 130.969 100.305 130.889C104.705 130.682 107.26 130.339 110.085 129.609C117.875 127.599 124.325 122.319 127.835 115.079C129.6 111.439 130.495 107.899 130.9 102.762C130.988 101.642 131.025 83.785 131.025 65.952C131.025 48.116 130.985 30.292 130.897 29.172C130.487 23.952 129.592 20.442 127.77 16.732C126.275 13.695 124.615 11.427 122.205 9.108C117.904 5 112.644 2.5 106.376 1.596C103.339 1.157 102.734 1.027 87.1944 1H66.0344Z" fill="url(#paint0_radial_302_523)"/>
<path d="M66.0344 1C38.8924 1 30.9544 1.028 29.4114 1.156C23.8414 1.619 20.3754 2.496 16.5994 4.376C13.6894 5.821 11.3944 7.496 9.12942 9.844C5.00442 14.126 2.50442 19.394 1.59942 25.656C1.15942 28.696 1.03142 29.316 1.00542 44.844C0.995421 50.02 1.00542 56.832 1.00542 65.969C1.00542 93.089 1.03542 101.019 1.16542 102.559C1.61542 107.979 2.46542 111.389 4.26542 115.119C7.70542 122.259 14.2754 127.619 22.0154 129.619C24.6954 130.309 27.6554 130.689 31.4554 130.869C33.0654 130.939 49.4754 130.989 65.8954 130.989C82.3154 130.989 98.7354 130.969 100.305 130.889C104.705 130.682 107.26 130.339 110.085 129.609C117.875 127.599 124.325 122.319 127.835 115.079C129.6 111.439 130.495 107.899 130.9 102.762C130.988 101.642 131.025 83.785 131.025 65.952C131.025 48.116 130.985 30.292 130.897 29.172C130.487 23.952 129.592 20.442 127.77 16.732C126.275 13.695 124.615 11.427 122.205 9.108C117.904 5 112.644 2.5 106.376 1.596C103.339 1.157 102.734 1.027 87.1944 1H66.0344Z" fill="url(#paint1_radial_302_523)"/>
<path d="M66.004 18C52.968 18 51.332 18.057 46.212 18.29C41.102 18.524 37.614 19.333 34.562 20.52C31.405 21.746 28.727 23.386 26.059 26.055C23.389 28.723 21.749 31.401 20.519 34.557C19.329 37.61 18.519 41.099 18.289 46.207C18.06 51.327 18 52.964 18 66C18 79.036 18.058 80.667 18.29 85.787C18.525 90.897 19.334 94.385 20.52 97.437C21.747 100.594 23.387 103.272 26.056 105.94C28.723 108.61 31.401 110.254 34.556 111.48C37.61 112.667 41.099 113.476 46.208 113.71C51.328 113.943 52.963 114 65.998 114C79.035 114 80.666 113.943 85.786 113.71C90.896 113.476 94.388 112.667 97.442 111.48C100.598 110.254 103.272 108.61 105.939 105.94C108.609 103.272 110.249 100.594 111.479 97.438C112.659 94.385 113.469 90.896 113.709 85.788C113.939 80.668 113.999 79.036 113.999 66C113.999 52.964 113.939 51.328 113.709 46.208C113.469 41.098 112.659 37.61 111.479 34.558C110.249 31.401 108.609 28.723 105.939 26.055C103.269 23.385 100.599 21.745 97.439 20.52C94.379 19.333 90.889 18.524 85.779 18.29C80.659 18.057 79.029 18 65.989 18H66.004ZM61.698 26.65C62.976 26.648 64.402 26.65 66.004 26.65C78.82 26.65 80.339 26.696 85.4 26.926C90.08 27.14 92.62 27.922 94.312 28.579C96.552 29.449 98.149 30.489 99.828 32.169C101.508 33.849 102.548 35.449 103.42 37.689C104.077 39.379 104.86 41.919 105.073 46.599C105.303 51.659 105.353 53.179 105.353 65.989C105.353 78.799 105.303 80.319 105.073 85.379C104.859 90.059 104.077 92.599 103.42 94.289C102.55 96.529 101.508 98.124 99.828 99.803C98.148 101.483 96.553 102.523 94.312 103.393C92.622 104.053 90.08 104.833 85.4 105.047C80.34 105.277 78.82 105.327 66.004 105.327C53.187 105.327 51.668 105.277 46.608 105.047C41.928 104.831 39.388 104.049 37.695 103.392C35.455 102.522 33.855 101.482 32.175 99.802C30.495 98.122 29.455 96.526 28.583 94.285C27.926 92.595 27.143 90.055 26.93 85.375C26.7 80.315 26.654 78.795 26.654 65.977C26.654 53.159 26.7 51.647 26.93 46.587C27.144 41.907 27.926 39.367 28.583 37.675C29.453 35.435 30.495 33.835 32.175 32.155C33.855 30.475 35.455 29.435 37.695 28.563C39.387 27.903 41.928 27.123 46.608 26.908C51.036 26.708 52.752 26.648 61.698 26.638V26.65ZM91.626 34.62C88.446 34.62 85.866 37.197 85.866 40.378C85.866 43.558 88.446 46.138 91.626 46.138C94.806 46.138 97.386 43.558 97.386 40.378C97.386 37.198 94.806 34.618 91.626 34.618V34.62ZM66.004 41.35C52.391 41.35 41.354 52.387 41.354 66C41.354 79.613 52.391 90.645 66.004 90.645C79.617 90.645 90.65 79.613 90.65 66C90.65 52.387 79.617 41.35 66.004 41.35ZM66.004 50C74.84 50 82.004 57.163 82.004 66C82.004 74.836 74.84 82 66.004 82C57.167 82 50.004 74.836 50.004 66C50.004 57.163 57.167 50 66.004 50Z" fill="white"/>
<defs>
<radialGradient id="paint0_radial_302_523" cx="0" cy="0" r="1" gradientUnits="userSpaceOnUse" gradientTransform="translate(35.5389 141.001) rotate(-90) scale(128.829 119.853)">
<stop stop-color="#FFDD55"/>
<stop offset="0.1" stop-color="#FFDD55"/>
<stop offset="0.5" stop-color="#FF543E"/>
<stop offset="1" stop-color="#C837AB"/>
</radialGradient>
<radialGradient id="paint1_radial_302_523" cx="0" cy="0" r="1" gradientUnits="userSpaceOnUse" gradientTransform="translate(-20.7788 10.3642) rotate(78.6776) scale(57.5876 237.438)">
<stop stop-color="#3771C8"/>
<stop offset="0.128" stop-color="#3771C8"/>
<stop offset="1" stop-color="#6600FF" stop-opacity="0"/>
</radialGradient>
</defs>
</svg>
