<svg width="163" height="87" viewBox="0 0 163 87" fill="none" xmlns="http://www.w3.org/2000/svg">
  <path d="M4.33848 78.1694C3.76236 78.1459 3.2568 77.8461 2.82178 77.27C2.38676 76.6998 2.00463 75.9532 1.68719 75.0361C1.36385 74.1132 1.09345 73.0726 0.875924 71.8969C0.658434 70.727 0.482074 69.5396 0.340968 68.3344C0.20576 67.1293 0.111704 65.9595 0.0646875 64.819C0.0176596 63.6844 0 62.6792 0 61.8091C0.0176603 60.4276 0.129333 59.0109 0.323353 57.5529C0.51733 56.095 0.740738 54.7194 0.981742 53.4379C1.22278 52.1505 1.46378 51.01 1.70482 50.0106C1.94586 49.0112 2.12222 48.3058 2.23392 47.8884C2.3985 47.2241 2.61602 46.7715 2.89232 46.5304C3.16861 46.2894 3.68005 46.1424 4.43841 46.1013H5.2673C5.49658 46.1248 5.72584 46.1424 5.95511 46.166C6.18437 46.1895 6.39012 46.2483 6.57825 46.3423C5.74935 47.9942 5.08507 49.6696 4.57948 51.3686C4.07392 53.0675 3.68005 54.7665 3.40964 56.4654C3.13335 58.1643 2.95697 59.8397 2.89232 61.4799C2.82179 63.1201 2.81001 64.7132 2.85704 66.2475C2.90409 67.4644 2.96874 68.599 3.06279 69.6454C3.15687 70.6859 3.30383 71.7499 3.50958 72.8316C3.71533 73.8839 3.95637 74.4953 4.23266 74.654C4.50895 74.8127 4.797 74.7069 5.09681 74.3248C5.39664 73.9486 5.6847 73.396 5.97273 72.6729C6.26079 71.9498 6.50771 71.2209 6.71346 70.486C6.85454 70.004 7.0603 69.3103 7.33658 68.405C7.60701 67.4938 7.91858 66.4885 8.26542 65.3892C8.60639 64.284 8.97087 63.1377 9.34709 61.9443C9.72919 60.751 10.076 59.6399 10.3994 58.6229C10.7227 57.6 11.0049 56.7064 11.2459 55.9481C11.4869 55.1956 11.6515 54.69 11.7456 54.4373C11.8808 54.0669 12.0689 53.5554 12.3099 52.9029C12.551 52.2504 12.8155 51.5567 13.1036 50.8336C13.3916 50.1105 13.6914 49.3875 13.9971 48.6644C14.3087 47.9413 14.6026 47.3064 14.8789 46.7538C15.1552 46.2247 15.4609 45.9132 15.8077 45.825C16.1546 45.7309 16.4897 45.7838 16.8248 45.9779C17.154 46.1718 17.4655 46.4658 17.7536 46.8597C18.0417 47.2476 18.2885 47.6474 18.4943 48.0648C18.1945 48.1765 17.8888 48.4586 17.5831 48.9054C17.2715 49.3522 16.9893 49.8284 16.7366 50.334C16.4368 50.9336 16.1546 51.5743 15.8783 52.2622C15.6902 52.7677 15.4492 53.4379 15.1552 54.2609C14.8554 55.0898 14.538 55.9951 14.2087 56.9827C13.8737 57.9703 13.5268 58.9932 13.1741 60.0514C12.8155 61.1037 12.4804 62.103 12.1571 63.0436C11.8338 63.9901 11.5398 64.8307 11.2753 65.5773C11.0166 66.3239 10.7991 66.8824 10.6404 67.2469C10.4111 67.7995 10.1466 68.4344 9.84678 69.1574C9.55284 69.8864 9.23541 70.6271 8.90033 71.3796C8.5711 72.1379 8.23016 72.8904 7.88331 73.637C7.54234 74.3836 7.1955 75.0537 6.85453 75.6534C6.37249 76.5234 5.96099 77.1642 5.63179 77.5639C5.29671 77.9696 4.86755 78.1694 4.33848 78.1694Z" fill="#E3B23C"/>
  <path d="M31.7858 64.3192C31.098 65.3304 30.3161 66.3121 29.4461 67.2644C28.5701 68.2168 27.6472 69.0692 26.6713 69.8158C25.6955 70.5624 24.6961 71.162 23.6732 71.6205C22.6562 72.0849 21.6627 72.3142 20.6986 72.3142C20.193 72.3142 19.6463 72.1908 19.0584 71.9497C18.4765 71.7087 17.9415 71.3384 17.4594 70.8328C16.9774 70.3272 16.5894 69.6688 16.3072 68.8693C16.0192 68.0639 15.931 67.0881 16.0486 65.9417C16.1368 64.9953 16.4307 64.0076 16.9245 62.9612C17.4183 61.9149 18.0238 60.9566 18.7528 60.0866C19.4758 59.2107 20.2871 58.4876 21.1983 57.9115C22.1036 57.3412 23.0148 57.0532 23.9319 57.0532C24.8078 57.0532 25.4368 57.2707 25.8307 57.7057C26.2187 58.1407 26.3892 58.6816 26.348 59.3282C26.2775 60.0396 26.0776 60.6921 25.7425 61.2917C25.4074 61.8854 25.0135 62.4263 24.555 62.9083C24.0965 63.3904 23.6086 63.8254 23.0912 64.2193C22.5739 64.6073 22.086 64.9659 21.6274 65.2833C21.1219 65.6302 20.6398 65.9594 20.1813 66.2651C19.7228 66.5766 19.3171 66.8588 18.9762 67.1116C18.9997 67.6877 19.0996 68.1698 19.2819 68.5578C19.4699 68.9457 19.6992 69.2632 19.9755 69.5042C20.2459 69.7452 20.5634 69.9157 20.922 70.0215C21.2747 70.1274 21.6392 70.1744 22.0037 70.1744C22.7855 70.1744 23.6027 69.9275 24.4492 69.4337C25.3016 68.9399 26.1305 68.3461 26.9476 67.6465C27.7648 66.947 28.5231 66.218 29.2227 65.4597C29.9222 64.7014 30.5042 64.0429 30.9628 63.4962C31.1215 63.3081 31.2861 63.2023 31.4625 63.167C31.6329 63.1317 31.7681 63.1553 31.874 63.2375C31.9797 63.3139 32.0268 63.4551 32.0268 63.649C32.0268 63.8431 31.9504 64.0664 31.7858 64.3192ZM22.9677 59.0166C22.6915 59.0166 22.3681 59.1519 21.986 59.4282C21.6098 59.7045 21.2336 60.0983 20.8691 60.6156C20.4987 61.133 20.1578 61.7679 19.8344 62.5145C19.5111 63.261 19.2701 64.1135 19.1113 65.0776C19.3877 64.8718 19.6875 64.6602 20.0049 64.4427C20.3282 64.2252 20.6516 63.99 20.969 63.7372C21.9566 62.9789 22.6503 62.3087 23.0383 61.7385C23.4263 61.1624 23.6497 60.6686 23.6908 60.2571C23.7379 59.822 23.6908 59.5046 23.5556 59.3106C23.4145 59.1166 23.2206 59.0166 22.9677 59.0166Z" fill="#E3B23C"/>
  <path d="M27.9943 71.3148C27.8356 71.5676 27.6592 71.7322 27.4652 71.8145C27.2653 71.8909 27.0949 71.9027 26.9479 71.8498C26.7951 71.791 26.701 71.6675 26.654 71.4853C26.6069 71.303 26.654 71.0738 26.7892 70.7975C26.8597 70.6564 27.0126 70.3507 27.2536 69.8687C27.4946 69.3866 27.7826 68.8046 28.1177 68.1286C28.4469 67.4466 28.8114 66.7118 29.1994 65.9241C29.5933 65.1304 29.9636 64.378 30.3222 63.6667C30.675 62.9553 31.0042 62.3146 31.304 61.7561C31.6038 61.1917 31.8213 60.7861 31.9565 60.5333C31.7037 60.304 31.5332 60.1336 31.4392 60.0336C31.351 59.9278 31.2805 59.7044 31.2334 59.3576C31.1864 59.0636 31.2569 58.6698 31.4392 58.1878C31.6273 57.7057 31.8683 57.2413 32.1623 56.7945C32.4621 56.3477 32.7972 55.9597 33.1616 55.6423C33.532 55.3189 33.8847 55.1602 34.2316 55.1602C34.8723 55.1602 35.325 55.366 35.5895 55.7775C35.8541 56.189 36.0128 56.6181 36.054 57.0532C36.101 57.353 36.0775 57.7292 35.9893 58.1878C35.8952 58.6463 35.7247 59.0637 35.4719 59.4281C35.5425 59.4752 35.6307 59.5281 35.7483 59.5868C35.8599 59.6398 36.0422 59.6692 36.295 59.6692C36.6653 59.6692 36.924 59.6457 37.0709 59.6045C37.2238 59.5575 37.4589 59.5339 37.7764 59.5339C38.1703 59.5339 38.4936 59.628 38.7405 59.8279C38.9933 60.0219 39.2049 60.2629 39.3636 60.551C39.5224 60.8331 39.6458 61.1447 39.7222 61.4798C39.8045 61.809 39.8574 62.1147 39.881 62.391C39.9515 62.9671 39.7986 63.5608 39.4342 64.184C39.0638 64.8012 38.617 65.4832 38.088 66.218C37.7646 66.6765 37.4472 67.1939 37.1239 67.7641C36.8005 68.3402 36.6653 68.8575 36.7123 69.316C36.7594 69.6159 36.8358 69.8569 36.9534 70.0391C37.0651 70.2214 37.3884 70.3154 37.9175 70.3154C38.3055 70.3154 38.7346 70.1685 39.2108 69.8863C39.6811 69.5982 40.1631 69.2279 40.6569 68.7811C41.1507 68.3343 41.6387 67.8405 42.1207 67.2997C42.6028 66.7588 43.0495 66.2297 43.4611 65.7183C43.8785 65.201 44.2253 64.7366 44.5133 64.3192C44.8014 63.9077 45.013 63.6079 45.1483 63.4256C45.2658 63.2434 45.4128 63.1141 45.595 63.0435C45.7831 62.9788 45.9419 62.9788 46.0829 63.0435C46.2182 63.1141 46.3064 63.2552 46.3358 63.4609C46.371 63.6667 46.2887 63.9429 46.0829 64.2839C45.9419 64.5132 45.7067 64.8835 45.3716 65.3891C45.0424 65.8947 44.6368 66.459 44.1665 67.0763C43.6962 67.6935 43.173 68.3343 42.6028 68.9868C42.0267 69.6453 41.427 70.239 40.7922 70.7798C40.1631 71.3207 39.5282 71.7616 38.8992 72.1025C38.2643 72.4494 37.6647 72.6199 37.0886 72.6199C36.4949 72.6199 36.001 72.5082 35.6072 72.2789C35.2192 72.0496 34.9017 71.7675 34.6607 71.4324C34.4197 71.1032 34.2492 70.7328 34.1434 70.3331C34.0434 69.9275 34.0023 69.5571 34.0258 69.2102C34.0493 68.9339 34.1199 68.6459 34.2492 68.3343C34.3726 68.0227 34.5255 67.6994 34.696 67.3702C34.8665 67.0351 35.0546 66.7059 35.2486 66.3709C35.4426 66.0358 35.6189 65.7124 35.7835 65.3891C36.1715 64.7248 36.489 64.1546 36.73 63.6843C36.971 63.214 37.0886 62.8143 37.0886 62.4968C37.0886 62.2911 37.0416 62.1029 36.9534 61.9442C36.8593 61.7855 36.7123 61.7032 36.5066 61.7032C36.3655 61.7032 36.2714 61.709 36.2127 61.7208C36.1539 61.7326 36.0951 61.7385 36.0422 61.7385C35.9834 61.7385 35.9011 61.7443 35.7953 61.7561C35.6954 61.7678 35.5425 61.7737 35.3309 61.7737C35.0369 61.7737 34.7841 61.7267 34.5725 61.6326C34.3668 61.5445 34.1728 61.4739 33.9905 61.4269C33.8965 61.5856 33.6907 61.9325 33.3674 62.4615C33.05 62.9906 32.6737 63.6079 32.2505 64.3192C31.8272 65.0305 31.3804 65.7771 30.9042 66.5589C30.4339 67.3408 29.993 68.0698 29.5815 68.7458C29.17 69.4219 28.8173 69.998 28.5292 70.4683C28.2412 70.9386 28.0648 71.2207 27.9943 71.3148Z" fill="#E3B23C"/>
  <path d="M41.1569 86.1938C40.9982 86.1232 40.8336 86.0233 40.6748 85.8822C40.5396 85.7705 40.3986 85.6235 40.2633 85.453C40.1223 85.2826 40.0106 85.0709 39.9165 84.8181C40.5631 82.3609 41.104 80.221 41.5567 78.4104C42.0034 76.5939 42.3856 75.0772 42.7089 73.8603C43.0498 72.4377 43.3496 71.2443 43.6024 70.2802C43.8317 69.3631 44.061 68.4402 44.2902 67.5231C44.4783 66.7177 44.6782 65.8594 44.8957 64.9424C45.1132 64.0194 45.3131 63.1611 45.4954 62.3558C45.7246 61.4622 45.8657 60.745 45.9128 60.2042C45.9598 59.6633 45.7834 59.1989 45.3954 58.8109C45.6717 58.5816 45.9539 58.3994 46.2361 58.2759C46.5241 58.1466 46.7828 58.0643 47.0121 58.0173C47.2648 57.9468 47.5176 57.9232 47.7704 57.9468C48.3935 57.9938 48.7756 58.1878 48.9226 58.5346C49.0755 58.8756 49.0931 59.4282 48.9755 60.1865C48.952 60.3041 48.9344 60.3982 48.9226 60.4804C48.9109 60.5627 48.905 60.6451 48.905 60.7391C49.2283 60.3688 49.5869 60.016 49.9749 59.6692C50.3688 59.3282 50.7626 59.0167 51.1624 58.7404C51.568 58.4641 51.9795 58.2407 52.4028 58.0702C52.826 57.8938 53.2376 57.8115 53.6256 57.8115C54.1546 57.8115 54.5838 57.9409 54.9189 58.2054C55.2539 58.47 55.5126 58.8227 55.6949 59.2577C55.8771 59.6927 55.9947 60.1806 56.0358 60.7215C56.0828 61.2623 56.0946 61.7973 56.0711 62.3205C56.0476 62.8966 55.9535 63.508 55.7771 64.1487C55.6067 64.7895 55.3715 65.4479 55.0717 66.1122C54.7778 66.7765 54.4309 67.4349 54.0429 68.0757C53.6491 68.7165 53.2376 69.3161 52.8025 69.8687C52.8907 69.8922 52.9495 69.904 52.973 69.9157C52.9965 69.9275 53.0083 69.9392 53.0083 69.951C53.0083 69.9627 53.0259 69.9745 53.0612 69.9863C53.0906 69.998 53.167 70.0039 53.2846 70.0039C53.8078 70.0039 54.3486 69.8687 54.9012 69.5924C55.4538 69.3161 55.9947 68.9634 56.5179 68.5401C57.0469 68.1168 57.5584 67.6524 58.0522 67.1469C58.546 66.6413 58.9928 66.1534 59.3984 65.6831C59.7981 65.2128 60.1391 64.7836 60.4154 64.4074C60.6858 64.0253 60.8975 63.7608 61.0327 63.5961C61.2149 63.3669 61.3913 63.214 61.55 63.1317C61.7087 63.0494 61.838 63.0436 61.9263 63.1141C62.0203 63.1846 62.0673 63.314 62.0673 63.5139C62.0673 63.7078 61.9968 63.9548 61.8616 64.2546C61.7675 64.4603 61.5735 64.7895 61.2737 65.248C60.9739 65.7125 60.6094 66.2239 60.1744 66.8C59.7335 67.3761 59.2338 67.9699 58.6753 68.593C58.111 69.2103 57.5172 69.7746 56.9 70.2802C56.2768 70.7858 55.6419 71.2032 54.9894 71.5382C54.331 71.8674 53.6961 72.0379 53.073 72.0379C52.779 72.0379 52.538 72.0262 52.3499 72.0027C52.1677 71.9791 52.0148 71.938 51.8855 71.8792C51.762 71.8263 51.6386 71.7675 51.5269 71.7087C51.4093 71.6499 51.2741 71.5911 51.1095 71.5206C50.698 71.8439 50.2747 72.0908 49.8397 72.2613C49.3988 72.4318 48.9755 72.52 48.564 72.52C48.1701 72.52 47.8351 72.4553 47.547 72.3318C47.2589 72.2025 47.0238 72.0321 46.8416 71.8145C46.6593 71.597 46.5065 71.356 46.3948 71.0914C46.2772 70.8269 46.189 70.5683 46.1185 70.3155C46.095 70.4036 46.0773 70.486 46.0656 70.5565C46.0538 70.627 46.0362 70.7152 46.0127 70.8328C45.7364 71.9321 45.4542 73.2078 45.1544 74.6539C44.9016 75.8943 44.5959 77.4051 44.2432 79.1864C43.8846 80.9617 43.5143 82.9899 43.1204 85.2649C42.9852 85.8822 42.7383 86.2408 42.3797 86.329C42.0269 86.423 41.6154 86.376 41.1569 86.1938ZM47.4588 64.8366C47.3471 65.2304 47.2237 65.6831 47.1003 66.2004C46.9709 66.7118 46.8298 67.3291 46.6711 68.0404C46.8533 67.9052 47.0591 67.7994 47.2883 67.7289C47.5176 67.6642 47.7469 67.6289 47.9761 67.6289C48.2289 67.6289 48.5523 67.7583 48.9403 68.0228C49.3341 68.2873 49.8044 68.5695 50.357 68.8693C50.698 68.4519 51.0625 67.9875 51.4387 67.4702C51.8208 66.9529 52.1618 66.4238 52.4733 65.8712C52.7849 65.3186 53.0494 64.7542 53.267 64.184C53.4845 63.6079 53.602 63.0553 53.6256 62.5321C53.6726 61.8384 53.5903 61.3035 53.3845 60.9096C53.1788 60.5216 52.8319 60.3276 52.3499 60.3276C51.6386 60.3276 50.8626 60.745 50.0278 61.5798C49.1871 62.4204 48.3348 63.508 47.4588 64.8366Z" fill="#E3B23C"/>
  <path d="M60.3446 77.9929C59.792 77.9929 59.4511 77.9342 59.3276 77.8048C59.1983 77.6814 59.1865 77.4345 59.2747 77.0641C59.2982 76.9524 59.4158 76.441 59.6215 75.5298C59.8273 74.6245 60.0859 73.5251 60.3975 72.2259C60.7032 70.9268 61.0383 69.5218 61.391 68.0051C61.7496 66.4884 62.0906 65.0657 62.408 63.7372C61.926 63.7783 61.5732 63.743 61.344 63.6137C61.1147 63.4903 61.003 63.3139 61.0148 63.0964C61.0265 62.8789 61.15 62.6555 61.391 62.4262C61.632 62.197 61.9847 62.0029 62.4433 61.8384C62.5374 61.7972 62.6726 61.7502 62.8607 61.7031C62.9724 61.3151 63.0782 60.9095 63.1664 60.498C63.2604 60.1512 63.3486 59.7867 63.4427 59.3928C63.5367 59.0048 63.6249 58.6227 63.719 58.2582L66.1292 47.9588C66.2703 47.4297 66.482 47.0359 66.77 46.7713C67.0522 46.5068 67.5871 46.2834 68.369 46.1011C69.0098 45.9365 69.4624 45.8778 69.7152 45.9072C69.9621 45.9424 70.0797 46.0188 70.0562 46.1305C69.9856 46.3833 69.8151 46.9947 69.5388 47.9588C69.2626 48.9229 68.9392 50.0987 68.5571 51.4919C68.1809 52.8793 67.7694 54.4077 67.3344 56.0714C66.8993 57.735 66.4761 59.3811 66.0587 61.0153C67.4402 60.8096 69.1156 60.6332 71.0908 60.498C71.8492 60.4039 72.5899 60.3452 73.3129 60.3275C74.036 60.304 74.7297 60.304 75.394 60.3275C75.7173 59.0871 76.0348 57.8467 76.3405 56.6063C76.652 55.3659 76.946 54.2137 77.2223 53.1614C77.4986 52.1033 77.7455 51.1686 77.963 50.3514C78.1805 49.5402 78.3451 48.9347 78.4627 48.5467C78.5979 48.1058 78.7331 47.7531 78.8565 47.4768C78.9859 47.2004 79.1328 46.983 79.3033 46.8242C79.4797 46.6596 79.6795 46.5479 79.9088 46.4774C80.1381 46.4068 80.4026 46.3539 80.7024 46.3069C80.8612 46.3069 81.0552 46.2951 81.2844 46.2716C81.4726 46.2716 81.6901 46.2658 81.9428 46.254C82.1956 46.2422 82.4778 46.2598 82.8011 46.3069C81.9311 48.6466 81.1198 51.0216 80.3732 53.4201C79.6266 55.8186 78.9329 58.1524 78.2922 60.4275C78.7037 60.4745 79.0623 60.5098 79.3739 60.5333C79.6854 60.5568 79.9323 60.5862 80.1146 60.6332C80.6672 60.7273 81.014 60.8742 81.1668 61.08C81.3138 61.2916 81.2609 61.5856 81.0081 61.9794L80.5966 62.4968C80.4614 62.679 80.2851 62.8906 80.0793 63.1316C79.8736 63.3727 79.609 63.6431 79.2857 63.9429C79.1035 63.8724 78.9153 63.8018 78.7213 63.7372C78.5273 63.6666 78.3333 63.5961 78.1511 63.5255C77.9218 63.4609 77.7043 63.3903 77.4986 63.3198C77.334 63.8724 77.187 64.4073 77.0518 64.9247C76.9107 65.442 76.7873 65.9652 76.6697 66.4884C76.3934 67.6171 76.1288 68.7752 75.8761 69.9686C75.6703 71.0032 75.4587 72.1436 75.2412 73.3958C75.0237 74.648 74.859 75.8825 74.7415 77.0994C74.5592 77.1934 74.3711 77.2522 74.1889 77.2875C74.0067 77.3228 73.8479 77.3522 73.7068 77.3757C73.5481 77.3992 73.3894 77.4227 73.2248 77.4462H73.1895H73.1248H73.0543C72.9602 77.4462 72.8721 77.4462 72.778 77.4462C72.6839 77.4462 72.5958 77.4227 72.5017 77.3757C72.39 77.3522 72.2724 77.3169 72.1607 77.2698C72.0432 77.2287 71.9315 77.1876 71.8315 77.1523C71.7257 77.117 71.6199 77.0641 71.5023 76.9936C71.6846 76.2411 71.8315 75.5239 71.9315 74.8596C72.0373 74.1953 72.1137 73.6075 72.1607 73.1019C72.2254 72.5081 72.2724 71.9791 72.2959 71.5205C72.3195 70.9209 72.2548 70.2684 72.1078 69.557C71.955 68.8457 71.7257 68.1462 71.42 67.4525C71.1085 66.7647 70.7263 66.1239 70.2795 65.5243C69.8328 64.9305 69.3214 64.425 68.7452 64.0135C68.175 63.6196 67.6283 63.3668 67.1109 63.2551C66.5936 63.1375 66.0704 63.1023 65.5472 63.1493C65.3826 63.8371 65.2357 64.5014 65.0946 65.148C64.9594 65.7888 64.8418 66.412 64.7536 67.0057C64.5008 68.3402 64.2598 69.6394 64.0305 70.8974C63.8424 71.9791 63.6543 73.096 63.4603 74.26C63.2663 75.4181 63.1193 76.4116 63.0312 77.2405C62.6608 77.4227 62.3198 77.5638 61.9965 77.6696C61.6732 77.7695 61.391 77.846 61.1382 77.893C60.8619 77.9635 60.5974 77.9929 60.3446 77.9929ZM73.9831 62.7025C73.1778 62.6085 72.4135 62.5556 71.6904 62.5438C70.9674 62.5379 70.3325 62.532 69.7799 62.532C70.2384 62.7848 70.6499 63.114 71.0026 63.5255C71.3612 63.9429 71.7316 64.4132 72.1255 64.9423C72.4899 65.4243 72.7898 65.9534 73.019 66.5237C73.2483 67.0997 73.4423 67.6524 73.6069 68.1756C73.7891 67.2115 73.9831 66.2709 74.1889 65.3538C74.3946 64.4367 74.5945 63.5725 74.7768 62.773C74.6357 62.7495 74.5063 62.7319 74.377 62.7201C74.2535 62.7084 74.1242 62.7025 73.9831 62.7025Z" fill="#E3B23C"/>
  <path d="M100.125 64.6308C99.8021 65.0894 99.3906 65.6596 98.885 66.3356C98.3794 67.0117 97.8562 67.6878 97.3154 68.3697C96.7804 69.0457 96.2513 69.663 95.734 70.2273C95.2167 70.7917 94.7876 71.1856 94.4407 71.4148C94.2114 71.5559 93.9469 71.6676 93.6471 71.7617C93.3532 71.8498 93.0475 71.9086 92.7359 71.9322C92.4243 71.9557 92.1304 71.938 91.86 71.8792C91.5837 71.8263 91.3427 71.7264 91.1369 71.5912C90.9253 71.4266 90.7548 71.1973 90.6196 70.8975C90.502 70.6447 90.3962 70.3155 90.2904 69.8981C90.1846 69.4866 90.1493 68.9693 90.1728 68.352C89.6202 69.2691 89.0088 69.9746 88.3445 70.4684C87.6803 70.9622 87.0454 71.3266 86.4516 71.5559C85.7638 71.8087 85.0701 71.9557 84.3823 72.0027C84.059 72.0027 83.718 71.891 83.3477 71.6735C82.9832 71.456 82.6716 71.115 82.4188 70.6388C82.1661 70.1685 82.0073 69.563 81.9368 68.8165C81.8663 68.0699 81.9603 67.1822 82.2131 66.1475C82.5364 64.7484 83.0479 63.4727 83.7474 62.3205C84.447 61.1742 85.2112 60.1924 86.0342 59.3753C86.8631 58.5641 87.6803 57.9468 88.4798 57.5353C89.2851 57.1238 89.9494 56.9356 90.4785 56.9827C91.1016 57.1003 91.6072 57.2825 91.9952 57.5353C92.3185 57.7645 92.5302 58.1055 92.6301 58.5523C92.7359 58.9991 92.5478 59.5928 92.0658 60.3276C92.3832 60.2571 92.6536 60.2101 92.8711 60.1866C93.0945 60.163 93.2591 60.1513 93.3708 60.1513C93.5119 60.1513 93.6001 60.163 93.6471 60.1866C93.6706 60.2336 93.6824 60.3335 93.6824 60.4805C93.6824 60.6275 93.6471 60.8979 93.5825 61.2917C93.5119 61.6797 93.4061 62.2088 93.2709 62.8731C93.1298 63.5374 92.9475 64.4016 92.7183 65.4597C92.6712 65.6655 92.6301 65.8536 92.6007 66.0241C92.5654 66.2004 92.5302 66.3709 92.4949 66.5414C92.4596 66.7119 92.4185 66.9176 92.3773 67.1469C92.3303 67.3762 92.2715 67.6642 92.2009 68.0052C92.1774 68.2109 92.1716 68.4344 92.1833 68.6754C92.1951 68.9164 92.2362 69.1457 92.3068 69.3514C92.3773 69.5572 92.4831 69.7218 92.6301 69.8511C92.783 69.9746 92.9946 70.0392 93.2709 70.0392C93.5001 70.0392 93.7999 69.8922 94.1644 69.6101C94.5348 69.322 94.9228 68.9516 95.3343 68.5049C95.7517 68.0581 96.1808 67.5643 96.6276 67.0235C97.0744 66.4826 97.4976 65.9653 97.8856 65.4597C98.2736 64.9542 98.6264 64.5015 98.9379 64.1135C99.2436 63.7255 99.4729 63.4375 99.6081 63.2552C99.7903 63.0436 99.9726 62.926 100.161 62.8908C100.343 62.8555 100.478 62.9084 100.572 63.0436C100.666 63.1847 100.684 63.3904 100.625 63.6667C100.566 63.943 100.402 64.2605 100.125 64.6308ZM90.0317 66.1475C90.1493 65.689 90.2845 65.1481 90.4432 64.525C90.6078 63.9077 90.743 63.3081 90.8606 62.7379C90.9723 62.1618 91.0605 61.6856 91.1193 61.3094C91.1722 60.9273 91.1546 60.7509 91.0664 60.7744C90.9488 60.7979 90.8253 60.8273 90.6842 60.8744C90.5726 60.9214 90.4197 60.9567 90.2375 60.9802C90.0553 61.0037 89.873 61.039 89.6849 61.0801C89.873 60.7156 89.9788 60.4099 90.0141 60.1689C90.0494 59.9279 90.0553 59.7398 90.0317 59.6046C90.0082 59.44 89.9612 59.3165 89.8965 59.2224C89.6437 59.0167 89.197 59.1813 88.5679 59.7221C87.9389 60.263 87.21 61.2565 86.3811 62.7026C86.0342 63.2964 85.7638 63.9371 85.5522 64.6132C85.3464 65.2892 85.2053 65.93 85.123 66.5238C85.0407 67.1234 85.029 67.6466 85.0701 68.0934C85.1172 68.5401 85.2112 68.8341 85.3464 68.9693C85.5992 69.2221 85.8873 69.3455 86.2106 69.3338C86.528 69.322 86.8572 69.228 87.1923 69.0575C87.5215 68.887 87.8566 68.6636 88.1917 68.3873C88.5209 68.111 88.8207 67.8229 89.0852 67.5231C89.3498 67.2233 89.5673 66.9529 89.7378 66.7001C89.9141 66.4473 90.0082 66.2592 90.0317 66.1475Z" fill="#E3B23C"/>
  <path d="M105.704 51.7508C105.357 53.1264 104.975 54.4432 104.552 55.6895C104.123 56.9416 103.688 58.1174 103.241 59.2049C102.794 60.2984 102.348 61.2919 101.895 62.1854C101.448 63.079 101.054 63.8608 100.707 64.5251C100.478 66.1829 100.478 67.5115 100.707 68.5226C100.937 69.5338 101.383 70.0393 102.054 70.0393C102.6 70.0393 103.141 69.7865 103.67 69.281C104.199 68.7754 104.67 68.1581 105.081 67.4233C105.498 66.6885 105.845 65.9007 106.133 65.0601C106.421 64.2253 106.598 63.4728 106.668 62.8027C106.233 62.691 105.863 62.4911 105.563 62.2031C105.269 61.915 105.116 61.5329 105.116 61.0508C105.116 60.7275 105.21 60.4218 105.393 60.1338C105.575 59.8516 105.792 59.6047 106.045 59.3931C106.298 59.1873 106.574 59.0286 106.874 58.911C107.174 58.7993 107.45 58.7405 107.703 58.7405C108.091 58.7405 108.426 58.9874 108.702 59.4812C108.973 59.975 109.161 60.5982 109.249 61.3565C110.172 61.333 111.136 61.1978 112.147 60.945C113.152 60.6922 114.105 60.3689 115.004 59.9809C115.257 59.8633 115.463 59.834 115.622 59.8751C115.786 59.9221 115.892 60.0162 115.951 60.1514C116.01 60.2925 116.004 60.4453 115.933 60.6158C115.863 60.7922 115.727 60.9215 115.522 61.0156C114.993 61.3154 114.446 61.5799 113.881 61.8209C113.323 62.062 112.764 62.2677 112.212 62.4264C111.659 62.5852 111.136 62.7145 110.631 62.8027C110.125 62.8967 109.666 62.9438 109.249 62.9438C109.161 63.8608 108.873 64.8543 108.391 65.9243C107.909 66.9883 107.321 67.9759 106.633 68.8871C105.945 69.7924 105.181 70.5449 104.34 71.1386C103.506 71.7382 102.683 72.0381 101.877 72.0381C101.624 72.0381 101.295 72.0028 100.878 71.9323C100.466 71.8617 100.067 71.6207 99.6727 71.2092C99.2847 70.7977 98.9496 70.1393 98.6733 69.2281C98.4029 68.3228 98.2854 67.0294 98.3324 65.354C98.3559 64.2312 98.4793 63.0319 98.7086 61.7739C98.9379 60.51 99.2142 59.2461 99.5375 57.9822C99.8608 56.7183 100.219 55.4955 100.625 54.3139C101.025 53.1323 101.407 52.0623 101.777 51.11C102.142 50.1576 102.483 49.3581 102.794 48.7174C103.1 48.0766 103.335 47.6592 103.5 47.477C103.705 47.2242 103.947 47.0361 104.223 46.9068C104.499 46.7833 104.77 46.6892 105.034 46.6304C105.293 46.5775 105.54 46.5599 105.775 46.5834C106.004 46.6069 106.163 46.6363 106.257 46.6834C106.392 46.7774 106.433 47.283 106.374 48.2C106.316 49.1171 106.092 50.2987 105.704 51.7508Z" fill="#E3B23C"/>
  <path d="M120.031 51.1981C119.96 51.4509 119.831 51.6978 119.637 51.9388C119.437 52.1798 119.22 52.3738 118.979 52.5208C118.738 52.6737 118.491 52.7677 118.238 52.8147C117.985 52.8617 117.779 52.8147 117.621 52.6795C117.139 52.3092 116.886 51.9153 116.862 51.492C116.839 51.0629 116.945 50.6631 117.174 50.2869C117.403 49.9048 117.691 49.5815 118.032 49.3169C118.379 49.0583 118.679 48.8995 118.932 48.8525C119.184 48.8114 119.396 48.8584 119.566 49.0112C119.737 49.1582 119.872 49.3522 119.96 49.5932C120.054 49.8342 120.107 50.1046 120.119 50.4045C120.131 50.7043 120.101 50.9688 120.031 51.1981ZM115.275 58.5347C115.393 58.3936 115.61 58.2819 115.933 58.1879C116.251 58.0997 116.586 58.0232 116.933 57.9644C117.274 57.9056 117.591 57.8763 117.879 57.8645C118.167 57.8528 118.332 57.8587 118.379 57.8821C118.402 57.8998 118.344 58.1408 118.208 58.6052C118.067 59.0637 117.897 59.6046 117.691 60.2218C117.48 60.8391 117.262 61.4799 117.033 62.1324C116.803 62.7908 116.633 63.3199 116.515 63.7373C116.404 64.1488 116.263 64.6132 116.104 65.1306C115.945 65.6479 115.798 66.1534 115.675 66.6472C115.545 67.141 115.463 67.6055 115.416 68.0405C115.369 68.4755 115.404 68.8106 115.516 69.0399C115.634 69.3161 115.763 69.5043 115.898 69.6101C116.033 69.71 116.186 69.7629 116.345 69.7629C116.803 69.7629 117.385 69.5102 118.085 69.0046C118.785 68.499 119.496 67.8994 120.219 67.1998C120.942 66.4944 121.618 65.7831 122.235 65.06C122.858 64.3369 123.317 63.7608 123.611 63.3199C123.799 63.0906 123.987 62.9437 124.181 62.8731C124.375 62.8026 124.54 62.8143 124.663 62.9084C124.793 63.0024 124.857 63.1494 124.869 63.3552C124.881 63.5609 124.81 63.8019 124.646 64.0783C124.281 64.7249 123.74 65.4833 123.029 66.371C122.318 67.2527 121.559 68.1051 120.754 68.9164C119.949 69.7335 119.167 70.4272 118.397 71.0033C117.626 71.5794 116.997 71.8734 116.515 71.8969C116.127 71.9204 115.745 71.8558 115.363 71.7088C114.987 71.5618 114.64 71.356 114.329 71.0915C114.023 70.827 113.764 70.5154 113.558 70.1568C113.347 69.8041 113.235 69.4279 113.212 69.0399C113.141 68.4637 113.141 67.6819 113.212 66.6825C113.282 65.6831 113.406 64.6602 113.588 63.6139C113.776 62.5674 114.011 61.5739 114.293 60.6334C114.581 59.6928 114.911 58.9932 115.275 58.5347Z" fill="#E3B23C"/>
  <path d="M134.839 62.7732C134.933 62.6322 135.051 62.544 135.203 62.5146C135.35 62.4793 135.474 62.4969 135.562 62.5616C135.656 62.6322 135.709 62.7497 135.721 62.9085C135.727 63.0672 135.668 63.2847 135.527 63.561C135.068 64.4369 134.469 65.3775 133.722 66.3886C132.975 67.3998 132.188 68.3462 131.359 69.228C130.536 70.1157 129.73 70.8447 128.949 71.4149C128.167 71.991 127.514 72.2791 126.985 72.2791C126.227 72.2791 125.598 72.1262 125.092 71.8323C124.587 71.5325 124.193 71.1621 123.905 70.7271C123.617 70.2921 123.417 69.8159 123.299 69.2986C123.187 68.7813 123.152 68.3051 123.199 67.87C123.223 67.4997 123.299 66.8413 123.44 65.8889C123.575 64.9366 123.758 63.8314 123.987 62.5792C124.216 61.3271 124.475 59.9868 124.763 58.5523C125.051 57.118 125.357 55.7306 125.68 54.402C125.286 54.4491 124.898 54.4902 124.504 54.5372C124.116 54.5842 123.758 54.6078 123.44 54.6078C122.705 54.6078 122.006 54.5196 121.353 54.3491C120.701 54.1786 120.213 54.0082 119.889 53.8494C119.707 53.7554 119.625 53.626 119.648 53.4555C119.672 53.2792 119.743 53.1087 119.854 52.9382C119.972 52.7619 120.113 52.6149 120.289 52.4915C120.46 52.3621 120.613 52.2975 120.754 52.2975C121.189 52.3445 121.659 52.3856 122.165 52.4209C122.67 52.4562 123.223 52.4621 123.816 52.4386C124.251 52.415 124.675 52.3797 125.074 52.3327C125.474 52.2857 125.874 52.2328 126.262 52.1623C126.562 51.057 126.856 50.0989 127.144 49.2876C127.426 48.4705 127.685 47.9002 127.914 47.5828C127.984 47.4652 128.137 47.3653 128.378 47.2888C128.619 47.2065 128.878 47.1477 129.154 47.1125C129.431 47.0831 129.695 47.0831 129.948 47.1125C130.201 47.1477 130.383 47.2359 130.5 47.3712C130.612 47.5592 130.659 48.0295 130.636 48.7879C130.612 49.5462 130.489 50.5104 130.259 51.6802C131.224 51.6802 132.076 51.7331 132.823 51.833C133.569 51.9389 134.21 52.0506 134.739 52.1799C135.262 52.3033 135.691 52.4327 136.009 52.5561C136.332 52.6855 136.573 52.7677 136.732 52.8148C136.896 52.8618 136.979 52.9794 136.991 53.1616C137.002 53.3439 136.967 53.532 136.891 53.726C136.808 53.9258 136.679 54.0905 136.491 54.2257C136.309 54.3668 136.103 54.4138 135.874 54.3668C135.644 54.3433 135.386 54.2962 135.098 54.2257C134.81 54.161 134.469 54.1022 134.063 54.0552C133.663 54.0082 133.187 53.967 132.634 53.92C132.082 53.8729 131.441 53.8494 130.706 53.8494C130.571 53.8494 130.412 53.8553 130.242 53.8671C130.071 53.8788 129.889 53.8847 129.707 53.8847C129.613 54.2492 129.531 54.6137 129.448 54.9664C129.366 55.325 129.26 55.6953 129.119 56.0892C128.825 57.0063 128.478 58.0057 128.09 59.0873C127.743 60.0279 127.332 61.1037 126.85 62.3206C126.368 63.5375 125.827 64.8367 125.227 66.2182C125.092 67.1999 125.11 67.9523 125.28 68.4697C125.451 68.987 125.668 69.3632 125.921 69.5925C126.215 69.8453 126.585 69.9805 127.02 70.004C127.367 70.051 127.785 69.9276 128.278 69.6454C128.772 69.3574 129.284 68.9694 129.813 68.4873C130.336 68.0053 130.871 67.4762 131.412 66.906C131.953 66.3298 132.452 65.7655 132.911 65.2188C133.369 64.6662 133.769 64.1665 134.116 63.7197C134.463 63.2729 134.704 62.9555 134.839 62.7732Z" fill="#E3B23C"/>
  <path d="M150.447 64.6308C150.123 65.0894 149.712 65.6596 149.206 66.3356C148.701 67.0117 148.178 67.6878 147.637 68.3697C147.102 69.0457 146.573 69.663 146.055 70.2273C145.538 70.7917 145.109 71.1856 144.762 71.4148C144.533 71.5559 144.268 71.6676 143.968 71.7617C143.674 71.8498 143.369 71.9086 143.057 71.9322C142.746 71.9557 142.452 71.938 142.181 71.8792C141.905 71.8263 141.664 71.7264 141.458 71.5912C141.247 71.4266 141.076 71.1973 140.941 70.8975C140.823 70.6447 140.718 70.3155 140.612 69.8981C140.506 69.4866 140.471 68.9693 140.494 68.352C139.942 69.2691 139.33 69.9746 138.666 70.4684C138.002 70.9622 137.367 71.3266 136.773 71.5559C136.085 71.8087 135.391 71.9557 134.704 72.0027C134.38 72.0027 134.039 71.891 133.669 71.6735C133.304 71.456 132.993 71.115 132.74 70.6388C132.487 70.1685 132.329 69.563 132.258 68.8165C132.188 68.0699 132.282 67.1822 132.534 66.1475C132.858 64.7484 133.369 63.4727 134.069 62.3205C134.768 61.1742 135.533 60.1924 136.356 59.3753C137.184 58.5641 138.002 57.9468 138.801 57.5353C139.606 57.1238 140.271 56.9356 140.8 56.9827C141.423 57.1003 141.928 57.2825 142.316 57.5353C142.64 57.7645 142.851 58.1055 142.951 58.5523C143.057 58.9991 142.869 59.5928 142.387 60.3276C142.704 60.2571 142.975 60.2101 143.192 60.1866C143.416 60.163 143.58 60.1513 143.692 60.1513C143.833 60.1513 143.921 60.163 143.968 60.1866C143.992 60.2336 144.004 60.3335 144.004 60.4805C144.004 60.6275 143.968 60.8979 143.904 61.2917C143.833 61.6797 143.727 62.2088 143.592 62.8731C143.451 63.5374 143.269 64.4016 143.04 65.4597C142.993 65.6655 142.951 65.8536 142.922 66.0241C142.887 66.2004 142.851 66.3709 142.816 66.5414C142.781 66.7119 142.74 66.9176 142.699 67.1469C142.652 67.3762 142.593 67.6642 142.522 68.0052C142.499 68.2109 142.493 68.4344 142.505 68.6754C142.516 68.9164 142.558 69.1457 142.628 69.3514C142.699 69.5572 142.804 69.7218 142.951 69.8511C143.104 69.9746 143.316 70.0392 143.592 70.0392C143.821 70.0392 144.121 69.8922 144.486 69.6101C144.856 69.322 145.244 68.9516 145.656 68.5049C146.073 68.0581 146.502 67.5643 146.949 67.0235C147.396 66.4826 147.819 65.9653 148.207 65.4597C148.595 64.9542 148.948 64.5015 149.259 64.1135C149.565 63.7255 149.794 63.4375 149.929 63.2552C150.112 63.0436 150.294 62.926 150.482 62.8908C150.664 62.8555 150.799 62.9084 150.893 63.0436C150.988 63.1847 151.005 63.3904 150.946 63.6667C150.888 63.943 150.723 64.2605 150.447 64.6308ZM140.353 66.1475C140.471 65.689 140.606 65.1481 140.765 64.525C140.929 63.9077 141.064 63.3081 141.182 62.7379C141.294 62.1618 141.382 61.6856 141.441 61.3094C141.493 60.9273 141.476 60.7509 141.388 60.7744C141.27 60.7979 141.147 60.8273 141.006 60.8744C140.894 60.9214 140.741 60.9567 140.559 60.9802C140.377 61.0037 140.194 61.039 140.006 61.0801C140.194 60.7156 140.3 60.4099 140.335 60.1689C140.371 59.9279 140.377 59.7398 140.353 59.6046C140.33 59.44 140.282 59.3165 140.218 59.2224C139.965 59.0167 139.518 59.1813 138.889 59.7221C138.26 60.263 137.531 61.2565 136.702 62.7026C136.356 63.2964 136.085 63.9371 135.873 64.6132C135.668 65.2892 135.527 65.93 135.444 66.5238C135.362 67.1234 135.35 67.6466 135.391 68.0934C135.438 68.5401 135.533 68.8341 135.668 68.9693C135.921 69.2221 136.209 69.3455 136.532 69.3338C136.849 69.322 137.179 69.228 137.514 69.0575C137.843 68.887 138.178 68.6636 138.513 68.3873C138.842 68.111 139.142 67.8229 139.407 67.5231C139.671 67.2233 139.889 66.9529 140.059 66.7001C140.235 66.4473 140.33 66.2592 140.353 66.1475Z" fill="#E3B23C"/>
  <path d="M160.846 62.7732C160.94 62.6322 161.057 62.544 161.21 62.5146C161.357 62.4793 161.481 62.4969 161.569 62.5616C161.663 62.6322 161.716 62.7497 161.728 62.9085C161.733 63.0672 161.675 63.2847 161.534 63.561C161.075 64.4369 160.475 65.3775 159.729 66.3886C158.982 67.3998 158.195 68.3462 157.366 69.228C156.543 70.1157 155.737 70.8447 154.955 71.4149C154.173 71.991 153.521 72.2791 152.992 72.2791C152.234 72.2791 151.605 72.1262 151.099 71.8323C150.593 71.5325 150.2 71.1621 149.911 70.7271C149.623 70.2921 149.424 69.8159 149.306 69.2986C149.194 68.7813 149.159 68.3051 149.206 67.87C149.23 67.4997 149.306 66.8413 149.447 65.8889C149.582 64.9366 149.765 63.8314 149.994 62.5792C150.223 61.3271 150.482 59.9868 150.77 58.5523C151.058 57.118 151.364 55.7306 151.687 54.402C151.293 54.4491 150.905 54.4902 150.511 54.5372C150.123 54.5842 149.765 54.6078 149.447 54.6078C148.712 54.6078 148.013 54.5196 147.36 54.3491C146.708 54.1786 146.22 54.0082 145.896 53.8494C145.714 53.7554 145.632 53.626 145.655 53.4555C145.679 53.2792 145.749 53.1087 145.861 52.9382C145.979 52.7619 146.12 52.6149 146.296 52.4915C146.467 52.3621 146.619 52.2975 146.76 52.2975C147.196 52.3445 147.666 52.3856 148.171 52.4209C148.677 52.4562 149.23 52.4621 149.823 52.4386C150.258 52.415 150.682 52.3797 151.081 52.3327C151.481 52.2857 151.881 52.2328 152.269 52.1623C152.569 51.057 152.863 50.0989 153.151 49.2876C153.433 48.4705 153.691 47.9002 153.921 47.5828C153.991 47.4652 154.144 47.3653 154.385 47.2888C154.626 47.2065 154.885 47.1477 155.161 47.1125C155.437 47.0831 155.702 47.0831 155.955 47.1125C156.207 47.1477 156.39 47.2359 156.507 47.3712C156.619 47.5592 156.666 48.0295 156.643 48.7879C156.619 49.5462 156.496 50.5104 156.266 51.6802C157.23 51.6802 158.083 51.7331 158.829 51.833C159.576 51.9389 160.217 52.0506 160.746 52.1799C161.269 52.3033 161.698 52.4327 162.016 52.5561C162.339 52.6855 162.58 52.7677 162.739 52.8148C162.903 52.8618 162.986 52.9794 162.997 53.1616C163.009 53.3439 162.974 53.532 162.897 53.726C162.815 53.9258 162.686 54.0905 162.498 54.2257C162.315 54.3668 162.11 54.4138 161.88 54.3668C161.651 54.3433 161.392 54.2962 161.104 54.2257C160.816 54.161 160.475 54.1022 160.07 54.0552C159.67 54.0082 159.194 53.967 158.641 53.92C158.089 53.8729 157.448 53.8494 156.713 53.8494C156.578 53.8494 156.419 53.8553 156.249 53.8671C156.078 53.8788 155.896 53.8847 155.714 53.8847C155.62 54.2492 155.537 54.6137 155.455 54.9664C155.373 55.325 155.267 55.6953 155.126 56.0892C154.832 57.0063 154.485 58.0057 154.097 59.0873C153.75 60.0279 153.339 61.1037 152.857 62.3206C152.375 63.5375 151.834 64.8367 151.234 66.2182C151.099 67.1999 151.117 67.9523 151.287 68.4697C151.458 68.987 151.675 69.3632 151.928 69.5925C152.222 69.8453 152.592 69.9805 153.027 70.004C153.374 70.051 153.791 69.9276 154.285 69.6454C154.779 69.3574 155.29 68.9694 155.82 68.4873C156.343 68.0053 156.878 67.4762 157.419 66.906C157.959 66.3298 158.459 65.7655 158.918 65.2188C159.376 64.6662 159.776 64.1665 160.123 63.7197C160.47 63.2729 160.711 62.9555 160.846 62.7732Z" fill="#E3B23C"/>
  <path d="M122.404 32.0966C123.032 32.5088 123.207 33.3516 122.794 33.9788C122.381 34.606 121.537 34.7803 120.91 34.3681L73.6713 3.25429L51.7894 17.6235L49.6755 19.0117V16.4878V11.361H38.9915V24.6566V25.3852L38.3722 25.7923L29.7877 31.4377C29.1598 31.85 28.3161 31.6757 27.9034 31.0485C27.4907 30.4214 27.6652 29.5785 28.2931 29.1663L36.2583 23.9281V9.99594L36.2584 8.63098L37.6249 8.63091H51.0421H52.4086V9.99594V13.9639L72.925 0.491344L73.6735 -9.15527e-05L74.4197 0.491344L122.404 32.0966Z" fill="#19599B"/>
</svg>
