<svg width="60" height="65" viewBox="0 0 60 65" fill="none" xmlns="http://www.w3.org/2000/svg">
<path d="M22.4588 38.8044H7.5L15.0412 25.8696H30L22.4588 38.8044ZM37.5412 38.8044H52.5L44.9588 25.8696H30L37.5412 38.8044ZM37.5412 12.9348L30 0L22.4588 12.9348L30 25.8696L37.5412 12.9348Z" fill="#FF0000"/>
<path d="M6.63549 60.1099H10.9087V58.6273H6.63549V56.7087H11.432V55.1389H4.8913V64.0343H11.5192V62.4645H6.63549V60.1099ZM1.65698 47.1157L3.48837 53.7436H5.23256L7.15116 47.1157V53.7436H8.80814V44.8482H6.27907L4.36047 51.0401L2.52907 44.8482H0V53.7436H1.65698V47.1157ZM40.6395 44.8482H42.3837V53.7436H40.6395V44.8482ZM47.0134 55.1389H48.7576V64.0343H47.0134V55.1389ZM58.2558 44.8482H60V53.7436H58.2558V44.8482ZM9.50581 44.8482H11.25V53.7436H9.50581V44.8482ZM55.814 48.3366H52.2384V44.8482H50.4942V53.7436H52.2384V49.8192H55.814V53.7436H57.5581V44.8482H55.814V48.3366ZM13.9535 53.7436H15.7849V46.418H17.8779V44.8482H11.7733V46.418H13.9535V53.7436ZM35.0657 64.0343H36.8971V56.7087H39.0774V55.1389H32.9727V56.7087H35.0657V64.0343ZM28.9535 53.918C31.2209 53.918 32.5291 52.8715 32.5291 50.8657V44.761H30.7849V51.0401C30.7849 51.825 30.1744 52.4355 29.0407 52.4355C27.7326 52.4355 27.2965 51.6506 27.2965 51.0401V44.8482H25.5523V50.9529C25.4651 53.0459 26.8605 53.918 28.9535 53.918ZM20.4146 60.1099H24.6006V58.6273H20.4146V56.7087H25.1239V55.1389H18.5832V64.0343H25.2983V62.4645H20.4146V60.1099ZM37.5 53.7436C39.157 53.7436 40.2035 52.7843 40.2035 51.3889C40.2035 50.2552 39.4186 49.2959 38.4593 49.0343C39.2442 48.8599 39.8547 48.075 39.8547 47.0285C39.8547 45.7203 38.8954 44.8482 37.064 44.8482H33.0523V53.7436H37.5ZM37.064 52.3482H34.9709V49.8192H37.064C37.8488 49.8192 38.4593 50.2552 38.4593 51.1273C38.3721 51.825 37.7616 52.3482 37.064 52.3482ZM37.1512 46.2436C37.6744 46.2436 38.1977 46.6796 38.1977 47.2901C38.1977 47.8134 37.8488 48.4238 37.064 48.4238H34.9709V46.2436H37.1512ZM44.8332 59.761C45.618 59.4994 46.4029 58.8889 46.4029 57.5808C46.4029 56.011 45.3564 55.1389 43.525 55.1389H39.5134V64.0343H41.3448V60.5459H42.8274C43.7867 60.5459 44.2227 60.982 44.3971 61.6796C44.5715 62.3773 44.4843 63.4238 44.6587 64.0343H46.4901C46.3157 63.3366 46.2285 62.4645 46.1413 61.6796C46.1413 60.4587 45.5308 60.0227 44.8332 59.761ZM41.3448 59.1506V56.7087H43.4378C44.1355 56.7087 44.6587 57.232 44.6587 57.9296C44.6587 58.4529 44.2227 59.1506 43.525 59.1506H41.3448ZM13.8739 55.1389H12.1297V64.0343H18.0599V62.4645H13.8739V55.1389ZM20.9302 49.9936C22.4128 50.2552 23.1977 50.5169 23.1977 51.3889C23.1977 51.9994 22.5872 52.5227 21.4535 52.5227C20.3198 52.5227 19.6221 51.825 19.6221 51.0401H17.8779C17.8779 52.6099 18.8372 54.0052 21.4535 54.0052C23.8954 54.0052 25.0291 52.6971 25.0291 51.2145C25.0291 49.8192 24.157 48.9471 22.5 48.5982C20.9302 48.2494 19.8837 48.2494 19.8837 47.2029C19.8837 46.5052 20.4942 46.1564 21.4535 46.1564C22.5 46.1564 23.0233 46.6796 23.0233 47.5517H24.7674C24.7674 46.1564 23.7209 44.6738 21.3663 44.6738C19.7093 44.6738 18.0523 45.6331 18.0523 47.3773C18.0523 48.7727 19.0988 49.6448 20.9302 49.9936ZM45.8721 49.9936C47.2674 50.2552 48.1395 50.5169 48.1395 51.3889C48.1395 51.9994 47.5291 52.5227 46.3954 52.5227C45.1744 52.5227 44.564 51.825 44.564 51.0401H42.8198C42.8198 52.6099 43.7791 54.0052 46.3954 54.0052C48.8372 54.0052 49.9709 52.6971 49.9709 51.2145C49.9709 49.8192 49.0988 48.9471 47.4419 48.5982C45.8721 48.2494 44.8256 48.2494 44.8256 47.2029C44.8256 46.5052 45.436 46.1564 46.3954 46.1564C47.4419 46.1564 47.9651 46.6796 47.9651 47.5517H49.7093C49.7093 46.1564 48.6628 44.6738 46.3081 44.6738C44.6512 44.6738 42.9942 45.6331 42.9942 47.3773C42.9942 48.7727 44.1279 49.6448 45.8721 49.9936Z" fill="black"/>
<path d="M29.3101 62.6389C27.8275 62.6389 27.0426 61.2435 27.0426 59.4994C27.0426 57.8424 27.8275 56.3598 29.3101 56.3598C30.4438 56.3598 30.967 57.0575 31.2287 57.8424H33.0601C32.7984 56.0982 31.4031 54.7901 29.2228 54.7901C26.5194 54.7901 25.124 56.8831 25.124 59.4122C25.124 61.9412 26.5194 64.0342 29.2228 64.0342C31.3159 64.0342 32.7984 62.8133 33.0601 60.8947H31.2287C30.967 62.0284 30.4438 62.6389 29.3101 62.6389ZM53.2926 62.6389C51.8101 62.6389 51.0252 61.2435 51.0252 59.4994C51.0252 57.8424 51.8101 56.3598 53.2926 56.3598C54.4263 56.3598 54.9496 57.0575 55.2112 57.8424H57.0426C56.781 56.0982 55.3856 54.7901 53.2054 54.7901C50.5019 54.7901 49.1066 56.8831 49.1066 59.4122C49.1066 61.9412 50.5019 64.0342 53.2054 64.0342C55.2984 64.0342 56.781 62.8133 57.0426 60.8947H55.2112C54.9496 62.0284 54.4263 62.6389 53.2926 62.6389Z" fill="black"/>
</svg>
