<svg width="51" height="51" viewBox="0 0 51 51" fill="none" xmlns="http://www.w3.org/2000/svg">
<g clip-path="url(#clip0_273_480)">
<path d="M7.76028 0.5C3.20483 0.5 0.484375 3.30969 0.484375 8.01417V50.5H42.4868C47.8038 50.5 50.5008 47.777 50.5008 42.4062V0.5H7.76028Z" fill="white"/>
<path d="M7.76028 2.43994C3.99843 2.43994 2.42334 4.74713 2.42334 8.0134V36.4621C5.63677 35.1919 9.77203 34.0318 14.175 34.0318C23.9158 34.0318 26.3512 39.367 36.3978 39.367C41.0087 39.367 45.2826 38.3707 48.5601 37.2938V2.43994H7.76028Z" fill="#0076BE"/>
<path d="M12.5983 35.3582C8.64497 35.3582 5.1647 36.2055 2.42432 37.2131V48.561H42.4869C45.7055 48.561 48.5611 47.5829 48.5611 42.4071V38.5257C45.0444 39.814 40.4205 41.0529 35.6086 41.0529C25.5629 41.0529 22.3391 35.3582 12.5983 35.3582Z" fill="#6AC025"/>
<path d="M12.2829 14.3292H11.5291L12.0074 11.8349C12.1053 11.3194 12.2084 10.7294 12.3141 10.2511H12.2994C12.1122 10.6696 11.8584 11.1556 11.6868 11.4762L10.5137 13.6569H9.78251L9.54339 11.4979C9.50613 11.147 9.46801 10.6246 9.46108 10.2581H9.44635C9.34152 10.7952 9.22196 11.3558 9.0946 11.8557L8.48206 14.3284H7.83228L9.19164 9.0564H9.99824L10.2599 11.5213C10.3041 11.9536 10.3335 12.4847 10.3413 12.8572H10.3483C10.5657 12.4093 10.797 11.9467 11.0214 11.5213L12.321 9.0564H13.1943L12.282 14.3284L12.2829 14.3292Z" fill="white" stroke="white" stroke-width="0.4"/>
<path d="M16.6424 13.3804C16.6268 13.4628 16.6034 13.5529 16.6034 13.6421C16.6034 13.7989 16.716 13.8734 16.8581 13.8734C16.9473 13.8734 17.0305 13.8587 17.1119 13.8284L16.9707 14.3283C16.8581 14.3655 16.7307 14.3881 16.6034 14.3881C16.2308 14.3881 15.9319 14.2234 15.9319 13.8058H15.9241C15.6036 14.1273 15.2674 14.4262 14.79 14.4262C14.3127 14.4262 13.8569 14.1125 13.8569 13.5373C13.8569 13.3579 13.9011 13.1569 13.9306 13.0148L14.4608 10.5205H15.1253L14.6029 12.962C14.5804 13.0668 14.5431 13.2314 14.5431 13.3735C14.5431 13.7175 14.7666 13.8596 15.0136 13.8596C15.3792 13.8596 15.7673 13.5147 16.0064 13.2609L16.5886 10.5205H17.2462L16.6415 13.3804H16.6424Z" fill="white" stroke="white" stroke-width="0.4"/>
<path d="M20.2535 11.088H19.2459L18.8577 12.91C18.8205 13.0746 18.7901 13.247 18.7901 13.4177C18.7901 13.7097 18.9686 13.8587 19.2537 13.8587C19.4252 13.8587 19.6115 13.7989 19.7458 13.6941L19.6409 14.2694C19.4633 14.3811 19.2381 14.4262 19.0293 14.4262C18.4237 14.4262 18.1109 14.045 18.1109 13.5C18.1109 13.3129 18.1482 13.1266 18.1863 12.9473L18.5813 11.0871H18.0442L18.2157 10.595H18.6862L18.8872 9.6316L19.6115 9.35522L19.3507 10.595H20.3661L20.2535 11.0871V11.088Z" fill="white" stroke="white" stroke-width="0.4"/>
<path d="M23.6646 13.3804C23.6507 13.4628 23.6282 13.5529 23.6282 13.6421C23.6282 13.7989 23.74 13.8734 23.882 13.8734C23.9721 13.8734 24.0545 13.8587 24.1359 13.8284L23.9947 14.3283C23.882 14.3655 23.7547 14.3881 23.6282 14.3881C23.2548 14.3881 22.9559 14.2234 22.9559 13.8058H22.9481C22.6267 14.1273 22.2896 14.4262 21.8122 14.4262C21.3349 14.4262 20.8792 14.1125 20.8792 13.5373C20.8792 13.3579 20.9242 13.1569 20.9545 13.0148L21.4848 10.5205H22.1493L21.626 12.962C21.6034 13.0668 21.5662 13.2314 21.5662 13.3735C21.5662 13.7175 21.7897 13.8596 22.0366 13.8596C22.4023 13.8596 22.7913 13.5147 23.0304 13.2609L23.6126 10.5205H24.2702L23.6646 13.3804Z" fill="white" stroke="white" stroke-width="0.4"/>
<path d="M27.987 11.9319C27.2844 12.2897 26.4864 12.4847 25.7023 12.5661C25.6867 12.7004 25.6798 12.8121 25.6798 12.9014C25.6798 13.5079 25.9857 13.8648 26.606 13.8648C26.9482 13.8648 27.3164 13.7461 27.5841 13.5295L27.4724 14.1421C27.1596 14.3283 26.7775 14.4262 26.405 14.4262C25.5091 14.4262 24.9858 13.8882 24.9858 13.014C24.9858 11.8868 25.6651 10.3923 27.0019 10.3923C27.6067 10.3923 28.1005 10.7961 28.1005 11.4077C28.1005 11.5862 28.0624 11.7656 27.9879 11.931L27.987 11.9319ZM26.8503 10.9009C26.2612 10.9009 25.9475 11.4978 25.7985 12.0653C26.3435 12.0125 26.8737 11.8643 27.3805 11.6538C27.4039 11.5862 27.4117 11.5204 27.4117 11.4528C27.4117 11.1314 27.1717 10.9 26.8503 10.9V10.9009Z" fill="white" stroke="white" stroke-width="0.4"/>
<path d="M29.633 13.3806C29.6131 13.4707 29.5966 13.553 29.5966 13.6423C29.5966 13.7991 29.7092 13.8736 29.8505 13.8736C29.9406 13.8736 30.022 13.8589 30.1052 13.8285L29.9622 14.3284C29.8435 14.3657 29.724 14.3882 29.5958 14.3882C29.2076 14.3882 28.9165 14.2236 28.9165 13.806C28.9165 13.6423 28.946 13.4777 28.9841 13.313L29.9466 8.77318L30.6415 8.62329L29.6321 13.3806H29.633Z" fill="white" stroke="white" stroke-width="0.4"/>
<path d="M31.8206 13.3806C31.799 13.4707 31.7834 13.553 31.7834 13.6423C31.7834 13.7991 31.8951 13.8736 32.0364 13.8736C32.1265 13.8736 32.2088 13.8589 32.2911 13.8285L32.1499 14.3284C32.0294 14.3657 31.9099 14.3882 31.7834 14.3882C31.3952 14.3882 31.1033 14.2236 31.1033 13.806C31.1033 13.6423 31.1327 13.4777 31.17 13.313L32.1343 8.77318L32.8282 8.62329L31.8198 13.3806H31.8206Z" fill="white" stroke="white" stroke-width="0.4"/>
<path d="M36.1794 11.9319C35.4768 12.2897 34.678 12.4847 33.8939 12.5661C33.8792 12.7004 33.8722 12.8121 33.8722 12.9014C33.8722 13.5079 34.1781 13.8648 34.7975 13.8648C35.1415 13.8648 35.5071 13.7461 35.7757 13.5295L35.6639 14.1421C35.3511 14.3283 34.9691 14.4262 34.5957 14.4262C33.6998 14.4262 33.1765 13.8882 33.1765 13.014C33.1765 11.8868 33.8558 10.3923 35.1935 10.3923C35.7982 10.3923 36.292 10.7961 36.292 11.4077C36.292 11.5862 36.2548 11.7656 36.1794 11.931V11.9319ZM35.0436 10.9009C34.4544 10.9009 34.1399 11.4978 33.9918 12.0653C34.5359 12.0125 35.067 11.8643 35.5747 11.6538C35.5972 11.5862 35.6041 11.5204 35.6041 11.4528C35.6041 11.1314 35.3659 10.9 35.0436 10.9V10.9009Z" fill="white" stroke="white" stroke-width="0.4"/>
<path d="M10.6272 21.677C10.6133 21.7515 10.5977 21.8269 10.5977 21.9014C10.5977 22.0209 10.6272 22.1396 10.6792 22.2523L10.0294 22.5139C9.9618 22.3718 9.92541 22.2081 9.92541 22.0513C9.92541 21.9993 9.93321 21.9464 9.941 21.8953H9.93321C9.54507 22.3051 9.2323 22.4853 8.85802 22.4853C8.05835 22.4853 7.91626 21.6259 7.91626 21.1632C7.91626 19.8255 8.63363 18.4809 10.0528 18.4809C10.2468 18.4809 10.4409 18.4956 10.6358 18.5407L11.0015 16.8304L11.6963 16.6814L10.628 21.677H10.6272ZM9.96959 18.9886C8.92473 18.9886 8.60417 20.153 8.60417 21.0272C8.60417 21.4379 8.70814 21.9092 9.12573 21.9092C9.47662 21.9092 9.82058 21.5505 10.045 21.3192L10.5154 19.0934C10.3517 19.0267 10.1507 18.9886 9.97046 18.9886H9.96959Z" fill="white" stroke="white" stroke-width="0.4"/>
<path d="M14.9859 19.9894C14.2841 20.3481 13.4853 20.5421 12.7004 20.6244C12.6857 20.7579 12.6787 20.8714 12.6787 20.9597C12.6787 21.5645 12.9846 21.9232 13.6049 21.9232C13.948 21.9232 14.3145 21.8045 14.5839 21.5879L14.4704 22.1995C14.1576 22.3867 13.7773 22.4846 13.403 22.4846C12.5063 22.4846 11.9839 21.9457 11.9839 21.0724C11.9839 19.9443 12.6631 18.4507 14.0008 18.4507C14.6047 18.4507 15.0985 18.8544 15.0985 19.4661C15.0985 19.6454 15.0613 19.8239 14.9859 19.9885V19.9894ZM13.8509 18.9584C13.2609 18.9584 12.9473 19.5562 12.7983 20.1245C13.3432 20.0717 13.8743 19.9218 14.3812 19.7139C14.4037 19.6463 14.4106 19.5787 14.4106 19.512C14.4106 19.1906 14.1715 18.9593 13.8509 18.9593V18.9584Z" fill="white" stroke="white" stroke-width="0.4"/>
<path d="M18.7148 20.3031C18.506 20.3031 18.2972 20.2953 18.0866 20.2814L17.6396 22.3876H16.9075L18.0199 17.1746C18.4158 17.1079 18.8196 17.0767 19.2147 17.0767C20.1044 17.0767 20.9024 17.4735 20.9024 18.4516C20.9024 19.6689 19.8341 20.3031 18.7139 20.3031H18.7148ZM19.1263 17.6225C18.9625 17.6225 18.7979 17.6225 18.6402 17.6597L18.2079 19.7053C18.4011 19.7287 18.5943 19.7425 18.7901 19.7425C19.5361 19.7425 20.1192 19.2877 20.1192 18.5105C20.1192 17.9058 19.6929 17.6216 19.1263 17.6216V17.6225Z" fill="white" stroke="white" stroke-width="0.4"/>
<path d="M22.3944 22.5132C21.5211 22.5132 21.1321 21.9093 21.1321 21.094C21.1321 19.9287 21.7975 18.4507 23.1412 18.4507C24.0154 18.4507 24.4044 19.0554 24.4044 19.8698C24.4044 21.0342 23.739 22.5132 22.3944 22.5132ZM23.0364 18.9662C22.0799 18.9662 21.8339 20.3775 21.8339 21.1096C21.8339 21.5419 21.982 21.9977 22.4984 21.9977C23.4531 21.9977 23.7009 20.5863 23.7009 19.8542C23.7009 19.421 23.551 18.9653 23.0355 18.9653L23.0364 18.9662Z" fill="white" stroke="white" stroke-width="0.4"/>
<path d="M25.9769 21.438C25.9543 21.5273 25.9396 21.6096 25.9396 21.6997C25.9396 21.8556 26.0514 21.931 26.1935 21.931C26.2836 21.931 26.3659 21.9163 26.4473 21.886L26.3061 22.3867C26.1857 22.424 26.067 22.4456 25.9396 22.4456C25.5515 22.4456 25.2612 22.281 25.2612 21.8643C25.2612 21.6997 25.2907 21.5351 25.3262 21.3705L25.924 18.5781H26.5816L25.976 21.438H25.9769ZM26.514 17.5688C26.2905 17.5688 26.1553 17.4275 26.1553 17.2031C26.1553 16.8973 26.3278 16.6504 26.657 16.6504C26.8805 16.6504 27.0226 16.7925 27.0226 17.0169C27.0226 17.3236 26.8433 17.5688 26.5149 17.5688H26.514Z" fill="white" stroke="white" stroke-width="0.4"/>
<path d="M29.6634 19.1447H28.6558L28.2677 20.9685C28.2287 21.1322 28.2001 21.3038 28.2001 21.4753C28.2001 21.7664 28.3794 21.9163 28.6627 21.9163C28.836 21.9163 29.0223 21.8565 29.1566 21.7517L29.0517 22.3278C28.8715 22.4396 28.648 22.4847 28.4392 22.4847C27.8345 22.4847 27.52 22.1035 27.52 21.5576C27.52 21.3714 27.5572 21.1842 27.5945 21.0049L27.9904 19.1447H27.4524L27.6239 18.6526H28.0953L28.2963 17.6901L29.0214 17.4128L28.7598 18.6526H29.7752L29.6634 19.1447Z" fill="white" stroke="white" stroke-width="0.4"/>
<path d="M30.9613 21.438C30.9387 21.5273 30.924 21.6096 30.924 21.6997C30.924 21.8556 31.0358 21.931 31.177 21.931C31.2671 21.931 31.3485 21.9163 31.4308 21.886L31.2905 22.3867C31.1701 22.424 31.0505 22.4456 30.924 22.4456C30.535 22.4456 30.2439 22.281 30.2439 21.8643C30.2439 21.6997 30.2742 21.5351 30.3115 21.3705L30.9101 18.5781H31.5651L30.9621 21.438H30.9613ZM31.4976 17.5688C31.274 17.5688 31.1397 17.4275 31.1397 17.2031C31.1397 16.8973 31.3113 16.6504 31.6405 16.6504C31.8649 16.6504 32.007 16.7925 32.007 17.0169C32.007 17.3236 31.8268 17.5688 31.4976 17.5688Z" fill="white" stroke="white" stroke-width="0.4"/>
<path d="M35.3574 19.9894C34.6547 20.3481 33.8559 20.5421 33.0719 20.6244C33.0571 20.7579 33.0502 20.8714 33.0502 20.9597C33.0502 21.5645 33.356 21.9232 33.9755 21.9232C34.3186 21.9232 34.6842 21.8045 34.9545 21.5879L34.841 22.1995C34.5283 22.3867 34.1479 22.4846 33.7745 22.4846C32.8778 22.4846 32.3545 21.9457 32.3545 21.0724C32.3545 19.9443 33.0346 18.4507 34.3714 18.4507C34.9762 18.4507 35.4691 18.8544 35.4691 19.4661C35.4691 19.6454 35.4319 19.8239 35.3574 19.9885V19.9894ZM34.2216 18.9584C33.6315 18.9584 33.3188 19.5562 33.1689 20.1245C33.7139 20.0717 34.2449 19.9218 34.7526 19.7139C34.7752 19.6463 34.7821 19.5787 34.7821 19.512C34.7821 19.1906 34.5438 18.9593 34.2224 18.9593L34.2216 18.9584Z" fill="white" stroke="white" stroke-width="0.4"/>
<path d="M38.5439 19.1982C38.4616 19.161 38.3645 19.1237 38.245 19.1237C37.9383 19.1237 37.6472 19.4001 37.3864 19.647L36.8033 22.3883H36.1396L36.8033 19.2883C36.818 19.2138 36.8336 19.1385 36.8336 19.064C36.8336 18.9444 36.8033 18.824 36.7522 18.7131L37.402 18.4514C37.4626 18.5935 37.5068 18.7503 37.5068 18.9149C37.5068 18.9669 37.4912 19.0189 37.4834 19.0717H37.4912C37.7901 18.7659 38.0743 18.4817 38.5144 18.4817C38.582 18.4817 38.6418 18.4965 38.7015 18.5199L38.5439 19.1991V19.1982Z" fill="white" stroke="white" stroke-width="0.4"/>
<path d="M41.3571 19.1445C41.1171 19.0111 40.8416 18.9435 40.5661 18.9435C40.2299 18.9435 39.9076 19.1229 39.9076 19.4963C39.9076 20.0854 41.0955 20.3324 41.0955 21.2282C41.0955 22.0573 40.4084 22.4836 39.6477 22.4836C39.3116 22.4836 38.9746 22.416 38.6765 22.2661L38.803 21.6986C39.0647 21.8546 39.3861 21.93 39.6919 21.93C40.0584 21.93 40.4465 21.7654 40.4465 21.34C40.4465 20.6832 39.2657 20.5108 39.2657 19.6081C39.2657 18.8387 39.9154 18.4055 40.6328 18.4055C40.9395 18.4055 41.2523 18.4653 41.5287 18.5927L41.358 19.1445H41.3571Z" fill="white" stroke="white" stroke-width="0.4"/>
<path d="M10.9001 30.0194C10.9079 29.497 10.9079 28.9823 10.8784 28.459H9.1604C8.92128 28.9451 8.66743 29.5048 8.46556 30.0194H7.71094C8.49588 28.2052 9.39866 26.4421 10.4297 24.7466H11.1462C11.4607 26.4872 11.6313 28.2572 11.6617 30.0194H10.9001ZM10.6012 25.6208H10.5873C10.1758 26.3598 9.78073 27.1291 9.42985 27.8838H10.8412C10.7875 27.1291 10.706 26.3754 10.6012 25.6208Z" fill="white" stroke="white" stroke-width="0.4"/>
<path d="M15.102 26.7793C14.8628 26.645 14.5865 26.5774 14.311 26.5774C13.9748 26.5774 13.6534 26.7568 13.6534 27.1302C13.6534 27.7211 14.842 27.9671 14.842 28.863C14.842 29.6921 14.1541 30.1175 13.3934 30.1175C13.0573 30.1175 12.7211 30.0508 12.4231 29.9018L12.5496 29.3334C12.8112 29.4902 13.1318 29.5647 13.4394 29.5647C13.805 29.5647 14.1931 29.401 14.1931 28.9747C14.1931 28.318 13.014 28.1456 13.014 27.242C13.014 26.4726 13.6638 26.0403 14.3803 26.0403C14.687 26.0403 15.0006 26.0992 15.277 26.2274L15.1046 26.7802L15.102 26.7793Z" fill="white" stroke="white" stroke-width="0.4"/>
<path d="M18.222 26.7793C17.982 26.645 17.7065 26.5774 17.4292 26.5774C17.0948 26.5774 16.7725 26.7568 16.7725 27.1302C16.7725 27.7211 17.9603 27.9671 17.9603 28.863C17.9603 29.6921 17.2733 30.1175 16.5117 30.1175C16.1756 30.1175 15.8386 30.0508 15.5405 29.9018L15.667 29.3334C15.9287 29.4902 16.2501 29.5647 16.5559 29.5647C16.9215 29.5647 17.3106 29.401 17.3106 28.9747C17.3106 28.318 16.1297 28.1456 16.1297 27.242C16.1297 26.4726 16.7803 26.0403 17.4977 26.0403C17.8044 26.0403 18.1172 26.0992 18.3935 26.2274L18.222 26.7802V26.7793Z" fill="white" stroke="white" stroke-width="0.4"/>
<path d="M21.8192 29.0716C21.8045 29.1539 21.7828 29.244 21.7828 29.3333C21.7828 29.4901 21.8937 29.5646 22.0367 29.5646C22.1259 29.5646 22.2082 29.5499 22.2905 29.5204L22.1485 30.0203C22.0367 30.0593 21.9102 30.0801 21.7837 30.0801C21.4094 30.0801 21.1105 29.9163 21.1105 29.4979H21.1036C20.7822 29.8193 20.446 30.1182 19.9678 30.1182C19.4895 30.1182 19.0347 29.8054 19.0347 29.2293C19.0347 29.05 19.0797 28.849 19.1083 28.7069L19.6394 26.2117H20.3039L19.7824 28.654C19.759 28.758 19.7217 28.9226 19.7217 29.0655C19.7217 29.4086 19.9461 29.5507 20.1922 29.5507C20.5586 29.5507 20.9468 29.2076 21.1868 28.9529L21.769 26.2125H22.4266L21.821 29.0725L21.8192 29.0716Z" fill="white" stroke="white" stroke-width="0.4"/>
<path d="M25.5065 26.832C25.4242 26.7939 25.3272 26.7575 25.2076 26.7575C24.9009 26.7575 24.6107 27.033 24.3499 27.28L23.7668 30.0203H23.1006L23.7668 26.9213C23.7824 26.8468 23.7972 26.7714 23.7972 26.6969C23.7972 26.5782 23.7668 26.4578 23.714 26.3469L24.3638 26.0852C24.4236 26.2273 24.4686 26.3841 24.4686 26.5479C24.4686 26.6007 24.4539 26.6518 24.4469 26.7047H24.4539C24.7528 26.3988 25.0361 26.1147 25.4771 26.1147C25.5447 26.1147 25.6036 26.1303 25.6634 26.1528L25.5074 26.8329L25.5065 26.832Z" fill="white" stroke="white" stroke-width="0.4"/>
<path d="M28.4461 29.0717C28.4313 29.154 28.4088 29.2441 28.4088 29.3334C28.4088 29.4902 28.5206 29.5647 28.6618 29.5647C28.7528 29.5647 28.8342 29.55 28.9165 29.5205L28.7736 30.0204C28.6618 30.0594 28.5353 30.0802 28.4088 30.0802C28.0285 30.0802 27.7356 29.9164 27.7356 29.498H27.7287C27.4454 29.8047 27.0936 30.1183 26.6457 30.1183C25.8469 30.1183 25.7048 29.258 25.7048 28.7962C25.7048 27.4446 26.4213 26.1147 27.9081 26.1147C28.2364 26.1147 28.7225 26.1815 29.0352 26.2941L28.4461 29.0717ZM27.7434 26.6224C26.7133 26.6224 26.3919 27.7877 26.3919 28.6619C26.3919 29.0717 26.4967 29.543 26.9065 29.543C27.2505 29.543 27.5944 29.1852 27.811 28.953L28.2806 26.7273C28.1169 26.6614 27.915 26.6233 27.7426 26.6233L27.7434 26.6224Z" fill="white" stroke="white" stroke-width="0.4"/>
<path d="M33.1254 27.526L32.596 30.0195H31.9306L32.4539 27.5771C32.4756 27.4732 32.5128 27.3086 32.5128 27.1673C32.5128 26.8234 32.2893 26.6813 32.0355 26.6813C31.6629 26.6813 31.2661 27.0253 31.0201 27.2782L30.4378 30.0186H29.7725L30.4378 26.9196C30.4526 26.845 30.4673 26.7697 30.4673 26.6952C30.4673 26.5765 30.4378 26.456 30.3841 26.3451L31.0348 26.0835C31.1015 26.2256 31.1388 26.3893 31.1388 26.5461C31.1388 26.599 31.131 26.6501 31.124 26.703H31.1318C31.4229 26.3971 31.8033 26.113 32.2521 26.113C32.7381 26.113 33.1999 26.4119 33.1999 27.0019C33.1999 27.1812 33.1548 27.3761 33.1254 27.5252V27.526Z" fill="white" stroke="white" stroke-width="0.4"/>
<path d="M36.3354 27.2418C36.3354 26.884 36.2601 26.5998 35.8347 26.5998C34.9986 26.5998 34.737 27.9973 34.737 28.6454C34.737 29.1921 35.0125 29.5499 35.5808 29.5499C35.8641 29.5499 36.1405 29.4459 36.3718 29.2822L36.2592 29.8704C36.0045 30.0281 35.677 30.1182 35.3703 30.1182C34.4147 30.1182 34.0334 29.4684 34.0334 28.654C34.0334 27.8396 34.5567 26.0852 36.0192 26.0852C36.6395 26.0852 36.961 26.3763 36.961 26.988L36.3337 27.2418H36.3354Z" fill="white" stroke="white" stroke-width="0.4"/>
<path d="M40.3728 27.6232C39.6701 27.9819 38.8722 28.1759 38.0881 28.2574C38.0725 28.3917 38.0647 28.5043 38.0647 28.5944C38.0647 29.1983 38.3714 29.5569 38.9909 29.5569C39.334 29.5569 39.7013 29.4374 39.969 29.2217L39.8573 29.8342C39.5445 30.0196 39.1633 30.1175 38.789 30.1175C37.8932 30.1175 37.3699 29.5795 37.3699 28.7062C37.3699 27.5781 38.05 26.0845 39.3877 26.0845C39.9916 26.0845 40.4854 26.4882 40.4854 27.0999C40.4854 27.2792 40.4464 27.4586 40.3728 27.6232ZM39.2369 26.5922C38.6478 26.5922 38.3342 27.1891 38.1843 27.7575C38.731 27.7055 39.2612 27.5565 39.768 27.3459C39.7906 27.2784 39.7984 27.2116 39.7984 27.1441C39.7984 26.8235 39.5592 26.5922 39.2378 26.5922H39.2369Z" fill="white" stroke="white" stroke-width="0.4"/>
<path d="M43.6564 26.7793C43.4173 26.645 43.1418 26.5774 42.8654 26.5774C42.5293 26.5774 42.2078 26.7568 42.2078 27.1302C42.2078 27.7211 43.3956 27.9671 43.3956 28.863C43.3956 29.6921 42.7077 30.1175 41.9462 30.1175C41.6109 30.1175 41.2747 30.0508 40.9758 29.9018L41.1023 29.3334C41.364 29.4902 41.6845 29.5647 41.9912 29.5647C42.3568 29.5647 42.745 29.401 42.745 28.9747C42.745 28.318 41.5658 28.1456 41.5658 27.242C41.5658 26.4726 42.2148 26.0403 42.9313 26.0403C43.238 26.0403 43.5516 26.0992 43.828 26.2274L43.6564 26.7802V26.7793Z" fill="white" stroke="white" stroke-width="0.4"/>
</g>
<defs>
<clipPath id="clip0_273_480">
<rect width="50.0156" height="50" fill="white" transform="translate(0.484375 0.5)"/>
</clipPath>
</defs>
</svg>
