<svg width="60" height="10" viewBox="0 0 60 10" fill="none" xmlns="http://www.w3.org/2000/svg">
<path d="M57.4088 9.4315H60L57.3263 0.60388L53.6438 0.60373L50.97 9.43135H53.562L54.0345 7.79727H56.934L57.4088 9.43135M54.5955 5.83435L55.4775 2.78445H55.4925L56.3745 5.83435H54.5955ZM12.936 9.58981C15.597 9.58981 16.8832 9.12089 17.0655 6.71892C17.109 6.14737 17.1173 5.56058 17.1173 5.01664C17.118 4.47457 17.109 3.88719 17.0655 3.31571C16.8832 0.91299 15.597 0.444824 12.936 0.444824C10.275 0.444824 8.9895 0.91299 8.808 3.31571C8.76375 3.88719 8.75475 4.47457 8.75475 5.01664C8.7555 5.56058 8.76375 6.14737 8.808 6.71892C8.9895 9.12089 10.275 9.58981 12.936 9.58981ZM11.2628 5.01664C11.2628 4.53189 11.2748 4.24537 11.2853 4.03274C11.3528 2.67019 11.8905 2.51135 12.936 2.51135C13.9823 2.51135 14.52 2.67019 14.5868 4.03274C14.5973 4.24529 14.61 4.53182 14.61 5.01664C14.61 5.50296 14.5973 5.79001 14.5868 6.00211C14.52 7.3649 13.9823 7.52403 12.936 7.52403C11.8905 7.52403 11.3528 7.3649 11.2853 6.00211C11.2748 5.79001 11.2628 5.50296 11.2628 5.01664ZM0 0.607782V2.80838H2.6379V9.43525H5.27678V2.80838H7.91475V0.607782H0ZM40.4888 9.4315V0.60373H37.9845V9.4315H40.4888ZM30.4125 3.82679V0.60373H27.9225V9.4315H30.4125V6.0274H33.306V9.4315H35.7952V0.60373H33.306V3.82679H30.4125ZM48.7253 4.8176C49.8345 4.53392 50.16 3.87106 50.16 2.91297C50.16 0.972861 48.9398 0.603655 47.205 0.603655H42.7088V9.43128H47.4277C49.6005 9.43128 50.331 8.49494 50.331 7.05481C50.331 6.05073 50.1015 5.16482 48.7253 4.81737M45.198 5.80539H46.9245C47.622 5.80539 47.7675 6.11105 47.7675 6.60818C47.7675 7.10575 47.4945 7.41224 46.9245 7.41224H45.198V5.80539ZM45.198 2.62239H46.9245C47.3753 2.62239 47.6543 2.83629 47.6543 3.35075C47.6543 3.79176 47.3783 4.0632 46.9245 4.0632H45.198V2.62239ZM18.5685 6.5345H20.9423C20.9445 6.96275 20.9993 7.24898 21.207 7.40706C21.4433 7.58517 21.6547 7.64399 22.356 7.64399C23.031 7.64399 23.7705 7.64399 23.7705 6.81233C23.7705 6.15644 23.3573 6.00677 22.5945 5.9661C20.703 5.86587 20.019 5.81237 19.3148 5.28899C18.8348 4.93209 18.5858 4.23726 18.5858 3.29763C18.5858 1.69979 19.143 1.13927 19.947 0.748156C20.7765 0.344439 24.0322 0.344439 24.9083 0.748156C26.01 1.25594 26.0423 2.35522 26.0423 3.37491H23.6745C23.67 2.85505 23.553 2.70822 23.4578 2.61152C23.2118 2.39334 22.8615 2.34727 22.356 2.34727C21.744 2.34727 21.036 2.37488 21.036 3.11832C21.036 3.68552 21.2812 3.9226 21.9247 3.96432C22.809 4.02089 24.5513 4.07663 25.1723 4.44321C26.043 4.95842 26.2688 5.65557 26.2688 6.79297C26.2688 8.43665 25.6808 8.91907 24.8625 9.2807C23.9183 9.69784 20.7645 9.69784 19.7393 9.24844C18.5918 8.74801 18.5685 7.75061 18.5685 6.5345Z" fill="#FF0000"/>
</svg>
